<svg xmlns="http://www.w3.org/2000/svg" version="1.1" xmlns:xlink="http://www.w3.org/1999/xlink" xmlns:svgjs="http://svgjs.dev/svgjs" width="1440" height="560" preserveAspectRatio="none" viewBox="0 0 1440 560">
    <g clip-path="url(&quot;#SvgjsClipPath1119&quot;)" fill="none">
        <rect width="1440" height="560" x="0" y="0" fill="url(&quot;#SvgjsLinearGradient1120&quot;)"></rect>
        <circle r="18.5" cx="387" cy="52" fill="rgba(208, 119, 119, 1)" opacity="0.02" filter="blur(9px)"></circle>
        <circle r="14" cx="387" cy="52" fill="rgba(208, 119, 119, 1)" opacity="0.03" filter="blur(6px)"></circle>
        <circle r="9.5" cx="387" cy="52" fill="rgba(208, 119, 119, 1)" opacity="0.05" filter="blur(3px)"></circle>
        <circle r="5" cx="387" cy="52" fill="rgba(208, 119, 119, 1)" opacity="0.17" filter="drop-shadow(0 0 18px rgba(208, 119, 119, 1))"></circle>
        <circle r="26.1" cx="903" cy="18" fill="rgba(208, 119, 119, 1)" opacity="0.05" filter="blur(9px)"></circle>
        <circle r="18.9" cx="903" cy="18" fill="rgba(208, 119, 119, 1)" opacity="0.07" filter="blur(6px)"></circle>
        <circle r="11.7" cx="903" cy="18" fill="rgba(208, 119, 119, 1)" opacity="0.14" filter="blur(3px)"></circle>
        <circle r="4.5" cx="903" cy="18" fill="rgba(208, 119, 119, 1)" opacity="0.48" filter="drop-shadow(0 0 28.8px rgba(208, 119, 119, 1))"></circle>
        <circle r="19.25" cx="389" cy="179" fill="#ff0000" opacity="0.02" filter="blur(9px)"></circle>
        <circle r="14.5" cx="389" cy="179" fill="#ff0000" opacity="0.03" filter="blur(6px)"></circle>
        <circle r="9.75" cx="389" cy="179" fill="#ff0000" opacity="0.06" filter="blur(3px)"></circle>
        <circle r="5" cx="389" cy="179" fill="#ff0000" opacity="0.19" filter="drop-shadow(0 0 19px #ff0000)"></circle>
        <circle r="29" cx="724" cy="295" fill="rgba(208, 119, 119, 1)" opacity="0.06" filter="blur(9px)"></circle>
        <circle r="21" cx="724" cy="295" fill="rgba(208, 119, 119, 1)" opacity="0.08" filter="blur(6px)"></circle>
        <circle r="13" cx="724" cy="295" fill="rgba(208, 119, 119, 1)" opacity="0.17" filter="blur(3px)"></circle>
        <circle r="5" cx="724" cy="295" fill="rgba(208, 119, 119, 1)" opacity="0.55" filter="drop-shadow(0 0 32px rgba(208, 119, 119, 1))"></circle>
        <circle r="14.625" cx="787" cy="329" fill="rgba(208, 119, 119, 1)" opacity="0.03" filter="blur(9px)"></circle>
        <circle r="11.25" cx="787" cy="329" fill="rgba(208, 119, 119, 1)" opacity="0.05" filter="blur(6px)"></circle>
        <circle r="7.875" cx="787" cy="329" fill="rgba(208, 119, 119, 1)" opacity="0.1" filter="blur(3px)"></circle>
        <circle r="4.5" cx="787" cy="329" fill="rgba(208, 119, 119, 1)" opacity="0.32" filter="drop-shadow(0 0 13.5px rgba(208, 119, 119, 1))"></circle>
        <circle r="14.625" cx="1041" cy="501" fill="rgba(208, 119, 119, 1)" opacity="0.04" filter="blur(9px)"></circle>
        <circle r="11.25" cx="1041" cy="501" fill="rgba(208, 119, 119, 1)" opacity="0.06" filter="blur(6px)"></circle>
        <circle r="7.875" cx="1041" cy="501" fill="rgba(208, 119, 119, 1)" opacity="0.13" filter="blur(3px)"></circle>
        <circle r="4.5" cx="1041" cy="501" fill="rgba(208, 119, 119, 1)" opacity="0.42" filter="drop-shadow(0 0 13.5px rgba(208, 119, 119, 1))"></circle>
        <circle r="20.7" cx="279" cy="514" fill="rgba(208, 119, 119, 1)" opacity="0.07" filter="blur(9px)"></circle>
        <circle r="15.3" cx="279" cy="514" fill="rgba(208, 119, 119, 1)" opacity="0.1" filter="blur(6px)"></circle>
        <circle r="9.9" cx="279" cy="514" fill="rgba(208, 119, 119, 1)" opacity="0.21" filter="blur(3px)"></circle>
        <circle r="4.5" cx="279" cy="514" fill="rgba(208, 119, 119, 1)" opacity="0.7" filter="drop-shadow(0 0 21.6px rgba(208, 119, 119, 1))"></circle>
        <circle r="20" cx="629" cy="146" fill="#ff0000" opacity="0.06" filter="blur(9px)"></circle>
        <circle r="15" cx="629" cy="146" fill="#ff0000" opacity="0.09" filter="blur(6px)"></circle>
        <circle r="10" cx="629" cy="146" fill="#ff0000" opacity="0.17" filter="blur(3px)"></circle>
        <circle r="5" cx="629" cy="146" fill="#ff0000" opacity="0.57" filter="drop-shadow(0 0 20px #ff0000)"></circle>
        <circle r="29.75" cx="947" cy="450" fill="rgba(208, 119, 119, 1)" opacity="0.09" filter="blur(9px)"></circle>
        <circle r="21.5" cx="947" cy="450" fill="rgba(208, 119, 119, 1)" opacity="0.14" filter="blur(6px)"></circle>
        <circle r="13.25" cx="947" cy="450" fill="rgba(208, 119, 119, 1)" opacity="0.27" filter="blur(3px)"></circle>
        <circle r="5" cx="947" cy="450" fill="rgba(208, 119, 119, 1)" opacity="0.91" filter="drop-shadow(0 0 33px rgba(208, 119, 119, 1))"></circle>
        <circle r="19.25" cx="652" cy="52" fill="#ff0000" opacity="0.08" filter="blur(9px)"></circle>
        <circle r="14.5" cx="652" cy="52" fill="#ff0000" opacity="0.12" filter="blur(6px)"></circle>
        <circle r="9.75" cx="652" cy="52" fill="#ff0000" opacity="0.23" filter="blur(3px)"></circle>
        <circle r="5" cx="652" cy="52" fill="#ff0000" opacity="0.78" filter="drop-shadow(0 0 19px #ff0000)"></circle>
        <circle r="22.05" cx="252" cy="408" fill="rgba(208, 119, 119, 1)" opacity="0.03" filter="blur(9px)"></circle>
        <circle r="16.2" cx="252" cy="408" fill="rgba(208, 119, 119, 1)" opacity="0.04" filter="blur(6px)"></circle>
        <circle r="10.35" cx="252" cy="408" fill="rgba(208, 119, 119, 1)" opacity="0.08" filter="blur(3px)"></circle>
        <circle r="4.5" cx="252" cy="408" fill="rgba(208, 119, 119, 1)" opacity="0.26" filter="drop-shadow(0 0 23.4px rgba(208, 119, 119, 1))"></circle>
        <circle r="23.4" cx="1201" cy="540" fill="rgba(208, 119, 119, 1)" opacity="0.05" filter="blur(9px)"></circle>
        <circle r="17.1" cx="1201" cy="540" fill="rgba(208, 119, 119, 1)" opacity="0.07" filter="blur(6px)"></circle>
        <circle r="10.8" cx="1201" cy="540" fill="rgba(208, 119, 119, 1)" opacity="0.15" filter="blur(3px)"></circle>
        <circle r="4.5" cx="1201" cy="540" fill="rgba(208, 119, 119, 1)" opacity="0.5" filter="drop-shadow(0 0 25.2px rgba(208, 119, 119, 1))"></circle>
        <circle r="30.5" cx="1380" cy="138" fill="rgba(208, 119, 119, 1)" opacity="0.02" filter="blur(9px)"></circle>
        <circle r="22" cx="1380" cy="138" fill="rgba(208, 119, 119, 1)" opacity="0.03" filter="blur(6px)"></circle>
        <circle r="13.5" cx="1380" cy="138" fill="rgba(208, 119, 119, 1)" opacity="0.07" filter="blur(3px)"></circle>
        <circle r="5" cx="1380" cy="138" fill="rgba(208, 119, 119, 1)" opacity="0.22" filter="drop-shadow(0 0 34px rgba(208, 119, 119, 1))"></circle>
        <circle r="21.5" cx="514" cy="212" fill="rgba(208, 119, 119, 1)" opacity="0.1" filter="blur(9px)"></circle>
        <circle r="16" cx="514" cy="212" fill="rgba(208, 119, 119, 1)" opacity="0.15" filter="blur(6px)"></circle>
        <circle r="10.5" cx="514" cy="212" fill="rgba(208, 119, 119, 1)" opacity="0.29" filter="blur(3px)"></circle>
        <circle r="5" cx="514" cy="212" fill="rgba(208, 119, 119, 1)" opacity="0.97" filter="drop-shadow(0 0 22px rgba(208, 119, 119, 1))"></circle>
        <circle r="12.5" cx="1076" cy="452" fill="rgba(208, 119, 119, 1)" opacity="0.06" filter="blur(9px)"></circle>
        <circle r="10" cx="1076" cy="452" fill="rgba(208, 119, 119, 1)" opacity="0.09" filter="blur(6px)"></circle>
        <circle r="7.5" cx="1076" cy="452" fill="rgba(208, 119, 119, 1)" opacity="0.18" filter="blur(3px)"></circle>
        <circle r="5" cx="1076" cy="452" fill="rgba(208, 119, 119, 1)" opacity="0.61" filter="drop-shadow(0 0 10px rgba(208, 119, 119, 1))"></circle>
        <circle r="30.5" cx="590" cy="133" fill="rgba(208, 119, 119, 1)" opacity="0.04" filter="blur(9px)"></circle>
        <circle r="22" cx="590" cy="133" fill="rgba(208, 119, 119, 1)" opacity="0.07" filter="blur(6px)"></circle>
        <circle r="13.5" cx="590" cy="133" fill="rgba(208, 119, 119, 1)" opacity="0.13" filter="blur(3px)"></circle>
        <circle r="5" cx="590" cy="133" fill="rgba(208, 119, 119, 1)" opacity="0.44" filter="drop-shadow(0 0 34px rgba(208, 119, 119, 1))"></circle>
        <circle r="25.25" cx="235" cy="277" fill="rgba(208, 119, 119, 1)" opacity="0.05" filter="blur(9px)"></circle>
        <circle r="18.5" cx="235" cy="277" fill="rgba(208, 119, 119, 1)" opacity="0.08" filter="blur(6px)"></circle>
        <circle r="11.75" cx="235" cy="277" fill="rgba(208, 119, 119, 1)" opacity="0.16" filter="blur(3px)"></circle>
        <circle r="5" cx="235" cy="277" fill="rgba(208, 119, 119, 1)" opacity="0.54" filter="drop-shadow(0 0 27px rgba(208, 119, 119, 1))"></circle>
        <circle r="26.775" cx="1041" cy="515" fill="#ff0000" opacity="0.06" filter="blur(9px)"></circle>
        <circle r="19.35" cx="1041" cy="515" fill="#ff0000" opacity="0.09" filter="blur(6px)"></circle>
        <circle r="11.925" cx="1041" cy="515" fill="#ff0000" opacity="0.18" filter="blur(3px)"></circle>
        <circle r="4.5" cx="1041" cy="515" fill="#ff0000" opacity="0.61" filter="drop-shadow(0 0 29.7px #ff0000)"></circle>
        <circle r="22.05" cx="471" cy="34" fill="#ff0000" opacity="0.03" filter="blur(9px)"></circle>
        <circle r="16.2" cx="471" cy="34" fill="#ff0000" opacity="0.05" filter="blur(6px)"></circle>
        <circle r="10.35" cx="471" cy="34" fill="#ff0000" opacity="0.1" filter="blur(3px)"></circle>
        <circle r="4.5" cx="471" cy="34" fill="#ff0000" opacity="0.34" filter="drop-shadow(0 0 23.4px #ff0000)"></circle>
        <circle r="28.25" cx="1043" cy="531" fill="rgba(208, 119, 119, 1)" opacity="0.09" filter="blur(9px)"></circle>
        <circle r="20.5" cx="1043" cy="531" fill="rgba(208, 119, 119, 1)" opacity="0.14" filter="blur(6px)"></circle>
        <circle r="12.75" cx="1043" cy="531" fill="rgba(208, 119, 119, 1)" opacity="0.28" filter="blur(3px)"></circle>
        <circle r="5" cx="1043" cy="531" fill="rgba(208, 119, 119, 1)" opacity="0.95" filter="drop-shadow(0 0 31px rgba(208, 119, 119, 1))"></circle>
        <circle r="11.925" cx="1145" cy="126" fill="rgba(208, 119, 119, 1)" opacity="0.05" filter="blur(9px)"></circle>
        <circle r="9.45" cx="1145" cy="126" fill="rgba(208, 119, 119, 1)" opacity="0.08" filter="blur(6px)"></circle>
        <circle r="6.975" cx="1145" cy="126" fill="rgba(208, 119, 119, 1)" opacity="0.16" filter="blur(3px)"></circle>
        <circle r="4.5" cx="1145" cy="126" fill="rgba(208, 119, 119, 1)" opacity="0.53" filter="drop-shadow(0 0 9.9px rgba(208, 119, 119, 1))"></circle>
        <circle r="26" cx="87" cy="123" fill="#ff0000" opacity="0.09" filter="blur(9px)"></circle>
        <circle r="19" cx="87" cy="123" fill="#ff0000" opacity="0.14" filter="blur(6px)"></circle>
        <circle r="12" cx="87" cy="123" fill="#ff0000" opacity="0.27" filter="blur(3px)"></circle>
        <circle r="5" cx="87" cy="123" fill="#ff0000" opacity="0.91" filter="drop-shadow(0 0 28px #ff0000)"></circle>
        <circle r="25.25" cx="1136" cy="460" fill="#ff0000" opacity="0.02" filter="blur(9px)"></circle>
        <circle r="18.5" cx="1136" cy="460" fill="#ff0000" opacity="0.03" filter="blur(6px)"></circle>
        <circle r="11.75" cx="1136" cy="460" fill="#ff0000" opacity="0.05" filter="blur(3px)"></circle>
        <circle r="5" cx="1136" cy="460" fill="#ff0000" opacity="0.18" filter="drop-shadow(0 0 27px #ff0000)"></circle>
        <circle r="21.375" cx="906" cy="216" fill="#ff0000" opacity="0.05" filter="blur(9px)"></circle>
        <circle r="15.75" cx="906" cy="216" fill="#ff0000" opacity="0.07" filter="blur(6px)"></circle>
        <circle r="10.125" cx="906" cy="216" fill="#ff0000" opacity="0.14" filter="blur(3px)"></circle>
        <circle r="4.5" cx="906" cy="216" fill="#ff0000" opacity="0.46" filter="drop-shadow(0 0 22.5px #ff0000)"></circle>
        <circle r="21.5" cx="1260" cy="415" fill="#ff0000" opacity="0.08" filter="blur(9px)"></circle>
        <circle r="16" cx="1260" cy="415" fill="#ff0000" opacity="0.12" filter="blur(6px)"></circle>
        <circle r="10.5" cx="1260" cy="415" fill="#ff0000" opacity="0.23" filter="blur(3px)"></circle>
        <circle r="5" cx="1260" cy="415" fill="#ff0000" opacity="0.77" filter="drop-shadow(0 0 22px #ff0000)"></circle>
        <circle r="21.375" cx="1305" cy="61" fill="rgba(208, 119, 119, 1)" opacity="0.1" filter="blur(9px)"></circle>
        <circle r="15.75" cx="1305" cy="61" fill="rgba(208, 119, 119, 1)" opacity="0.15" filter="blur(6px)"></circle>
        <circle r="10.125" cx="1305" cy="61" fill="rgba(208, 119, 119, 1)" opacity="0.3" filter="blur(3px)"></circle>
        <circle r="4.5" cx="1305" cy="61" fill="rgba(208, 119, 119, 1)" opacity="0.99" filter="drop-shadow(0 0 22.5px rgba(208, 119, 119, 1))"></circle>
        <circle r="23.75" cx="1128" cy="282" fill="#ff0000" opacity="0.09" filter="blur(9px)"></circle>
        <circle r="17.5" cx="1128" cy="282" fill="#ff0000" opacity="0.13" filter="blur(6px)"></circle>
        <circle r="11.25" cx="1128" cy="282" fill="#ff0000" opacity="0.26" filter="blur(3px)"></circle>
        <circle r="5" cx="1128" cy="282" fill="#ff0000" opacity="0.88" filter="drop-shadow(0 0 25px #ff0000)"></circle>
        <circle r="17.325" cx="883" cy="143" fill="#ff0000" opacity="0.06" filter="blur(9px)"></circle>
        <circle r="13.05" cx="883" cy="143" fill="#ff0000" opacity="0.09" filter="blur(6px)"></circle>
        <circle r="8.775" cx="883" cy="143" fill="#ff0000" opacity="0.19" filter="blur(3px)"></circle>
        <circle r="4.5" cx="883" cy="143" fill="#ff0000" opacity="0.62" filter="drop-shadow(0 0 17.1px #ff0000)"></circle>
        <circle r="17.325" cx="847" cy="246" fill="#ff0000" opacity="0.07" filter="blur(9px)"></circle>
        <circle r="13.05" cx="847" cy="246" fill="#ff0000" opacity="0.11" filter="blur(6px)"></circle>
        <circle r="8.775" cx="847" cy="246" fill="#ff0000" opacity="0.21" filter="blur(3px)"></circle>
        <circle r="4.5" cx="847" cy="246" fill="#ff0000" opacity="0.71" filter="drop-shadow(0 0 17.1px #ff0000)"></circle>
        <circle r="22.05" cx="321" cy="40" fill="#ff0000" opacity="0.07" filter="blur(9px)"></circle>
        <circle r="16.2" cx="321" cy="40" fill="#ff0000" opacity="0.1" filter="blur(6px)"></circle>
        <circle r="10.35" cx="321" cy="40" fill="#ff0000" opacity="0.2" filter="blur(3px)"></circle>
        <circle r="4.5" cx="321" cy="40" fill="#ff0000" opacity="0.65" filter="drop-shadow(0 0 23.4px #ff0000)"></circle>
        <circle r="23.4" cx="775" cy="515" fill="rgba(208, 119, 119, 1)" opacity="0.08" filter="blur(9px)"></circle>
        <circle r="17.1" cx="775" cy="515" fill="rgba(208, 119, 119, 1)" opacity="0.12" filter="blur(6px)"></circle>
        <circle r="10.8" cx="775" cy="515" fill="rgba(208, 119, 119, 1)" opacity="0.24" filter="blur(3px)"></circle>
        <circle r="4.5" cx="775" cy="515" fill="rgba(208, 119, 119, 1)" opacity="0.81" filter="drop-shadow(0 0 25.2px rgba(208, 119, 119, 1))"></circle>
        <circle r="24.5" cx="72" cy="318" fill="#ff0000" opacity="0.01" filter="blur(9px)"></circle>
        <circle r="18" cx="72" cy="318" fill="#ff0000" opacity="0.02" filter="blur(6px)"></circle>
        <circle r="11.5" cx="72" cy="318" fill="#ff0000" opacity="0.03" filter="blur(3px)"></circle>
        <circle r="5" cx="72" cy="318" fill="#ff0000" opacity="0.11" filter="drop-shadow(0 0 26px #ff0000)"></circle>
        <circle r="19.25" cx="483" cy="464" fill="#ff0000" opacity="0.03" filter="blur(9px)"></circle>
        <circle r="14.5" cx="483" cy="464" fill="#ff0000" opacity="0.04" filter="blur(6px)"></circle>
        <circle r="9.75" cx="483" cy="464" fill="#ff0000" opacity="0.09" filter="blur(3px)"></circle>
        <circle r="5" cx="483" cy="464" fill="#ff0000" opacity="0.29" filter="drop-shadow(0 0 19px #ff0000)"></circle>
        <circle r="13.275" cx="635" cy="194" fill="#ff0000" opacity="0.07" filter="blur(9px)"></circle>
        <circle r="10.35" cx="635" cy="194" fill="#ff0000" opacity="0.1" filter="blur(6px)"></circle>
        <circle r="7.425" cx="635" cy="194" fill="#ff0000" opacity="0.2" filter="blur(3px)"></circle>
        <circle r="4.5" cx="635" cy="194" fill="#ff0000" opacity="0.66" filter="drop-shadow(0 0 11.7px #ff0000)"></circle>
        <circle r="15.5" cx="864" cy="535" fill="#ff0000" opacity="0.06" filter="blur(9px)"></circle>
        <circle r="12" cx="864" cy="535" fill="#ff0000" opacity="0.09" filter="blur(6px)"></circle>
        <circle r="8.5" cx="864" cy="535" fill="#ff0000" opacity="0.19" filter="blur(3px)"></circle>
        <circle r="5" cx="864" cy="535" fill="#ff0000" opacity="0.62" filter="drop-shadow(0 0 14px #ff0000)"></circle>
        <circle r="24.75" cx="329" cy="493" fill="#ff0000" opacity="0.02" filter="blur(9px)"></circle>
        <circle r="18" cx="329" cy="493" fill="#ff0000" opacity="0.04" filter="blur(6px)"></circle>
        <circle r="11.25" cx="329" cy="493" fill="#ff0000" opacity="0.07" filter="blur(3px)"></circle>
        <circle r="4.5" cx="329" cy="493" fill="#ff0000" opacity="0.24" filter="drop-shadow(0 0 27px #ff0000)"></circle>
        <circle r="26.775" cx="634" cy="122" fill="#ff0000" opacity="0.02" filter="blur(9px)"></circle>
        <circle r="19.35" cx="634" cy="122" fill="#ff0000" opacity="0.03" filter="blur(6px)"></circle>
        <circle r="11.925" cx="634" cy="122" fill="#ff0000" opacity="0.06" filter="blur(3px)"></circle>
        <circle r="4.5" cx="634" cy="122" fill="#ff0000" opacity="0.2" filter="drop-shadow(0 0 29.7px #ff0000)"></circle>
        <circle r="25.425" cx="190" cy="25" fill="#ff0000" opacity="0.09" filter="blur(9px)"></circle>
        <circle r="18.45" cx="190" cy="25" fill="#ff0000" opacity="0.14" filter="blur(6px)"></circle>
        <circle r="11.475" cx="190" cy="25" fill="#ff0000" opacity="0.27" filter="blur(3px)"></circle>
        <circle r="4.5" cx="190" cy="25" fill="#ff0000" opacity="0.91" filter="drop-shadow(0 0 27.9px #ff0000)"></circle>
        <circle r="22.05" cx="956" cy="112" fill="rgba(208, 119, 119, 1)" opacity="0.05" filter="blur(9px)"></circle>
        <circle r="16.2" cx="956" cy="112" fill="rgba(208, 119, 119, 1)" opacity="0.08" filter="blur(6px)"></circle>
        <circle r="10.35" cx="956" cy="112" fill="rgba(208, 119, 119, 1)" opacity="0.16" filter="blur(3px)"></circle>
        <circle r="4.5" cx="956" cy="112" fill="rgba(208, 119, 119, 1)" opacity="0.52" filter="drop-shadow(0 0 23.4px rgba(208, 119, 119, 1))"></circle>
        <circle r="24.5" cx="95" cy="345" fill="rgba(208, 119, 119, 1)" opacity="0.06" filter="blur(9px)"></circle>
        <circle r="18" cx="95" cy="345" fill="rgba(208, 119, 119, 1)" opacity="0.08" filter="blur(6px)"></circle>
        <circle r="11.5" cx="95" cy="345" fill="rgba(208, 119, 119, 1)" opacity="0.17" filter="blur(3px)"></circle>
        <circle r="5" cx="95" cy="345" fill="rgba(208, 119, 119, 1)" opacity="0.56" filter="drop-shadow(0 0 26px rgba(208, 119, 119, 1))"></circle>
        <circle r="24.075" cx="892" cy="467" fill="rgba(208, 119, 119, 1)" opacity="0.07" filter="blur(9px)"></circle>
        <circle r="17.55" cx="892" cy="467" fill="rgba(208, 119, 119, 1)" opacity="0.11" filter="blur(6px)"></circle>
        <circle r="11.025" cx="892" cy="467" fill="rgba(208, 119, 119, 1)" opacity="0.22" filter="blur(3px)"></circle>
        <circle r="4.5" cx="892" cy="467" fill="rgba(208, 119, 119, 1)" opacity="0.74" filter="drop-shadow(0 0 26.1px rgba(208, 119, 119, 1))"></circle>
        <circle r="19.35" cx="466" cy="399" fill="rgba(208, 119, 119, 1)" opacity="0.02" filter="blur(9px)"></circle>
        <circle r="14.4" cx="466" cy="399" fill="rgba(208, 119, 119, 1)" opacity="0.04" filter="blur(6px)"></circle>
        <circle r="9.45" cx="466" cy="399" fill="rgba(208, 119, 119, 1)" opacity="0.07" filter="blur(3px)"></circle>
        <circle r="4.5" cx="466" cy="399" fill="rgba(208, 119, 119, 1)" opacity="0.24" filter="drop-shadow(0 0 19.8px rgba(208, 119, 119, 1))"></circle>
        <circle r="17.325" cx="280" cy="288" fill="#ff0000" opacity="0.01" filter="blur(9px)"></circle>
        <circle r="13.05" cx="280" cy="288" fill="#ff0000" opacity="0.02" filter="blur(6px)"></circle>
        <circle r="8.775" cx="280" cy="288" fill="#ff0000" opacity="0.04" filter="blur(3px)"></circle>
        <circle r="4.5" cx="280" cy="288" fill="#ff0000" opacity="0.14" filter="drop-shadow(0 0 17.1px #ff0000)"></circle>
        <circle r="20.7" cx="1319" cy="324" fill="rgba(208, 119, 119, 1)" opacity="0.02" filter="blur(9px)"></circle>
        <circle r="15.3" cx="1319" cy="324" fill="rgba(208, 119, 119, 1)" opacity="0.03" filter="blur(6px)"></circle>
        <circle r="9.9" cx="1319" cy="324" fill="rgba(208, 119, 119, 1)" opacity="0.07" filter="blur(3px)"></circle>
        <circle r="4.5" cx="1319" cy="324" fill="rgba(208, 119, 119, 1)" opacity="0.23" filter="drop-shadow(0 0 21.6px rgba(208, 119, 119, 1))"></circle>
        <circle r="13.25" cx="658" cy="511" fill="#ff0000" opacity="0.04" filter="blur(9px)"></circle>
        <circle r="10.5" cx="658" cy="511" fill="#ff0000" opacity="0.06" filter="blur(6px)"></circle>
        <circle r="7.75" cx="658" cy="511" fill="#ff0000" opacity="0.12" filter="blur(3px)"></circle>
        <circle r="5" cx="658" cy="511" fill="#ff0000" opacity="0.39" filter="drop-shadow(0 0 11px #ff0000)"></circle>
        <circle r="16.25" cx="463" cy="164" fill="rgba(208, 119, 119, 1)" opacity="0.06" filter="blur(9px)"></circle>
        <circle r="12.5" cx="463" cy="164" fill="rgba(208, 119, 119, 1)" opacity="0.08" filter="blur(6px)"></circle>
        <circle r="8.75" cx="463" cy="164" fill="rgba(208, 119, 119, 1)" opacity="0.17" filter="blur(3px)"></circle>
        <circle r="5" cx="463" cy="164" fill="rgba(208, 119, 119, 1)" opacity="0.55" filter="drop-shadow(0 0 15px rgba(208, 119, 119, 1))"></circle>
        <circle r="22.25" cx="249" cy="29" fill="#ff0000" opacity="0.03" filter="blur(9px)"></circle>
        <circle r="16.5" cx="249" cy="29" fill="#ff0000" opacity="0.05" filter="blur(6px)"></circle>
        <circle r="10.75" cx="249" cy="29" fill="#ff0000" opacity="0.1" filter="blur(3px)"></circle>
        <circle r="5" cx="249" cy="29" fill="#ff0000" opacity="0.35" filter="drop-shadow(0 0 23px #ff0000)"></circle>
        <circle r="20.75" cx="143" cy="106" fill="#ff0000" opacity="0.07" filter="blur(9px)"></circle>
        <circle r="15.5" cx="143" cy="106" fill="#ff0000" opacity="0.1" filter="blur(6px)"></circle>
        <circle r="10.25" cx="143" cy="106" fill="#ff0000" opacity="0.2" filter="blur(3px)"></circle>
        <circle r="5" cx="143" cy="106" fill="#ff0000" opacity="0.67" filter="drop-shadow(0 0 21px #ff0000)"></circle>
        <circle r="27.5" cx="1096" cy="117" fill="#ff0000" opacity="0.03" filter="blur(9px)"></circle>
        <circle r="20" cx="1096" cy="117" fill="#ff0000" opacity="0.04" filter="blur(6px)"></circle>
        <circle r="12.5" cx="1096" cy="117" fill="#ff0000" opacity="0.08" filter="blur(3px)"></circle>
        <circle r="5" cx="1096" cy="117" fill="#ff0000" opacity="0.27" filter="drop-shadow(0 0 30px #ff0000)"></circle>
        <circle r="26.1" cx="735" cy="447" fill="#ff0000" opacity="0.06" filter="blur(9px)"></circle>
        <circle r="18.9" cx="735" cy="447" fill="#ff0000" opacity="0.09" filter="blur(6px)"></circle>
        <circle r="11.7" cx="735" cy="447" fill="#ff0000" opacity="0.17" filter="blur(3px)"></circle>
        <circle r="4.5" cx="735" cy="447" fill="#ff0000" opacity="0.57" filter="drop-shadow(0 0 28.8px #ff0000)"></circle>
    </g>
    <defs>
        <clipPath id="SvgjsClipPath1119">
            <rect width="1440" height="560" x="0" y="0"></rect>
        </clipPath>
        <linearGradient x1="50%" y1="100%" x2="50%" y2="0%" gradientUnits="userSpaceOnUse" id="SvgjsLinearGradient1120">
            <stop stop-color="#0a0a23" offset="0"></stop>
            <stop stop-color="rgba(112, 25, 87, 1)" offset="1"></stop>
        </linearGradient>
    </defs>
</svg>