<svg xmlns="http://www.w3.org/2000/svg" version="1.1" xmlns:xlink="http://www.w3.org/1999/xlink" xmlns:svgjs="http://svgjs.dev/svgjs" width="1440" height="760" preserveAspectRatio="none" viewBox="0 0 1440 760">
    <g mask="url(&quot;#SvgjsMask3361&quot;)" fill="none">
        <rect width="1440" height="760" x="0" y="0" fill="url(&quot;#SvgjsLinearGradient3362&quot;)"></rect>
        <g mask="url(&quot;#SvgjsMask3363&quot;)">
            <path d="M722.5 -8.5L722.5 8.5L722.5 25.5L722.5 42.5L722.5 59.5" stroke="rgba(215, 228, 221, 1)" stroke-width="2.83"></path>
            <path d="M718.25 59.5 a4.25 4.25 0 1 0 8.5 0 a4.25 4.25 0 1 0 -8.5 0z" fill="rgba(215, 228, 221, 1)"></path>
            <path d="M705.5 110.5L688.5 127.5M705.5 59.5L688.5 76.5M705.5 93.5L688.5 110.5M705.5 -8.5L705.5 8.5L705.5 25.5L705.5 42.5L705.5 59.5L705.5 76.5L705.5 93.5L705.5 110.5L705.5 127.5L705.5 144.5L705.5 161.5L705.5 178.5" stroke="#dd1133" stroke-width="2.83"></path>
            <path d="M701.25 178.5 a4.25 4.25 0 1 0 8.5 0 a4.25 4.25 0 1 0 -8.5 0zM684.25 127.5 a4.25 4.25 0 1 0 8.5 0 a4.25 4.25 0 1 0 -8.5 0zM684.25 76.5 a4.25 4.25 0 1 0 8.5 0 a4.25 4.25 0 1 0 -8.5 0zM684.25 110.5 a4.25 4.25 0 1 0 8.5 0 a4.25 4.25 0 1 0 -8.5 0z" fill="#dd1133"></path>
            <path d="M739.5 -8.5L739.5 8.5L739.5 25.5L739.5 42.5L739.5 59.5" stroke="#dd1133" stroke-width="2.83"></path>
            <path d="M735.25 59.5 a4.25 4.25 0 1 0 8.5 0 a4.25 4.25 0 1 0 -8.5 0z" fill="#dd1133"></path>
            <path d="M739.5 127.5L756.5 144.5L756.5 161.5M756.5 93.5L739.5 110.5L722.5 127.5L722.5 144.5M756.5 -8.5L756.5 8.5L756.5 25.5L756.5 42.5L756.5 59.5L756.5 76.5L756.5 93.5L756.5 110.5L739.5 127.5L739.5 144.5L739.5 161.5L739.5 178.5" stroke="rgba(215, 228, 221, 1)" stroke-width="2.83"></path>
            <path d="M735.25 178.5 a4.25 4.25 0 1 0 8.5 0 a4.25 4.25 0 1 0 -8.5 0zM752.25 161.5 a4.25 4.25 0 1 0 8.5 0 a4.25 4.25 0 1 0 -8.5 0zM718.25 144.5 a4.25 4.25 0 1 0 8.5 0 a4.25 4.25 0 1 0 -8.5 0z" fill="rgba(215, 228, 221, 1)"></path>
            <path d="M722.5 450.5L705.5 467.5L705.5 484.5M705.5 501.5L688.5 518.5L688.5 535.5L671.5 552.5M705.5 399.5L722.5 416.5L722.5 433.5L739.5 450.5M722.5 467.5L739.5 484.5L739.5 501.5L739.5 518.5L739.5 535.5L756.5 552.5M688.5 314.5L705.5 331.5L705.5 348.5L705.5 365.5L705.5 382.5M671.5 144.5L671.5 161.5M688.5 297.5L705.5 314.5L722.5 331.5L722.5 348.5L722.5 365.5L722.5 382.5L739.5 399.5L739.5 416.5L739.5 433.5M688.5 178.5L671.5 195.5L671.5 212.5L671.5 229.5L671.5 246.5M671.5 -8.5L671.5 8.5L671.5 25.5L671.5 42.5L671.5 59.5L671.5 76.5L671.5 93.5L671.5 110.5L671.5 127.5L671.5 144.5L688.5 161.5L688.5 178.5L688.5 195.5L688.5 212.5L688.5 229.5L688.5 246.5L688.5 263.5L688.5 280.5L688.5 297.5L688.5 314.5L688.5 331.5L688.5 348.5L688.5 365.5L688.5 382.5L705.5 399.5L705.5 416.5L705.5 433.5L722.5 450.5L722.5 467.5L722.5 484.5L705.5 501.5L705.5 518.5" stroke="rgba(215, 228, 221, 1)" stroke-width="2.83"></path>
            <path d="M701.25 518.5 a4.25 4.25 0 1 0 8.5 0 a4.25 4.25 0 1 0 -8.5 0zM701.25 484.5 a4.25 4.25 0 1 0 8.5 0 a4.25 4.25 0 1 0 -8.5 0zM667.25 552.5 a4.25 4.25 0 1 0 8.5 0 a4.25 4.25 0 1 0 -8.5 0zM735.25 450.5 a4.25 4.25 0 1 0 8.5 0 a4.25 4.25 0 1 0 -8.5 0zM752.25 552.5 a4.25 4.25 0 1 0 8.5 0 a4.25 4.25 0 1 0 -8.5 0zM701.25 382.5 a4.25 4.25 0 1 0 8.5 0 a4.25 4.25 0 1 0 -8.5 0zM667.25 161.5 a4.25 4.25 0 1 0 8.5 0 a4.25 4.25 0 1 0 -8.5 0zM735.25 433.5 a4.25 4.25 0 1 0 8.5 0 a4.25 4.25 0 1 0 -8.5 0zM667.25 246.5 a4.25 4.25 0 1 0 8.5 0 a4.25 4.25 0 1 0 -8.5 0z" fill="rgba(215, 228, 221, 1)"></path>
            <path d="M756.5 263.5L773.5 280.5L773.5 297.5L773.5 314.5L773.5 331.5L773.5 348.5L773.5 365.5L773.5 382.5L773.5 399.5L773.5 416.5M756.5 348.5L739.5 365.5M756.5 331.5L739.5 348.5M773.5 535.5L790.5 552.5L790.5 569.5M756.5 433.5L773.5 450.5L773.5 467.5M773.5 161.5L773.5 178.5L773.5 195.5L773.5 212.5M773.5 518.5L790.5 535.5M756.5 280.5L739.5 297.5L739.5 314.5L739.5 331.5M773.5 484.5L756.5 501.5M756.5 246.5L773.5 263.5L790.5 280.5L790.5 297.5L790.5 314.5L790.5 331.5M773.5 -8.5L773.5 8.5L773.5 25.5L773.5 42.5L773.5 59.5L773.5 76.5L773.5 93.5L773.5 110.5L773.5 127.5L773.5 144.5L773.5 161.5L756.5 178.5L756.5 195.5L756.5 212.5L756.5 229.5L756.5 246.5L756.5 263.5L756.5 280.5L756.5 297.5L756.5 314.5L756.5 331.5L756.5 348.5L756.5 365.5L756.5 382.5L756.5 399.5L756.5 416.5L756.5 433.5L756.5 450.5L756.5 467.5L773.5 484.5L773.5 501.5L773.5 518.5L773.5 535.5L773.5 552.5L773.5 569.5L773.5 586.5L773.5 603.5L773.5 620.5L773.5 637.5L790.5 654.5" stroke="rgba(215, 228, 221, 1)" stroke-width="2.83"></path>
            <path d="M786.25 654.5 a4.25 4.25 0 1 0 8.5 0 a4.25 4.25 0 1 0 -8.5 0zM769.25 416.5 a4.25 4.25 0 1 0 8.5 0 a4.25 4.25 0 1 0 -8.5 0zM735.25 365.5 a4.25 4.25 0 1 0 8.5 0 a4.25 4.25 0 1 0 -8.5 0zM735.25 348.5 a4.25 4.25 0 1 0 8.5 0 a4.25 4.25 0 1 0 -8.5 0zM786.25 569.5 a4.25 4.25 0 1 0 8.5 0 a4.25 4.25 0 1 0 -8.5 0zM769.25 467.5 a4.25 4.25 0 1 0 8.5 0 a4.25 4.25 0 1 0 -8.5 0zM769.25 212.5 a4.25 4.25 0 1 0 8.5 0 a4.25 4.25 0 1 0 -8.5 0zM786.25 535.5 a4.25 4.25 0 1 0 8.5 0 a4.25 4.25 0 1 0 -8.5 0zM735.25 331.5 a4.25 4.25 0 1 0 8.5 0 a4.25 4.25 0 1 0 -8.5 0zM752.25 501.5 a4.25 4.25 0 1 0 8.5 0 a4.25 4.25 0 1 0 -8.5 0zM786.25 331.5 a4.25 4.25 0 1 0 8.5 0 a4.25 4.25 0 1 0 -8.5 0z" fill="rgba(215, 228, 221, 1)"></path>
            <path d="M654.5 76.5L637.5 93.5M654.5 212.5L637.5 229.5L637.5 246.5L620.5 263.5M637.5 42.5L654.5 59.5M637.5 59.5L637.5 76.5M654.5 -8.5L637.5 8.5L637.5 25.5L637.5 42.5L637.5 59.5L654.5 76.5L654.5 93.5L654.5 110.5L654.5 127.5L654.5 144.5L654.5 161.5L654.5 178.5L654.5 195.5L654.5 212.5L654.5 229.5L654.5 246.5L637.5 263.5" stroke="#dd1133" stroke-width="2.83"></path>
            <path d="M633.25 263.5 a4.25 4.25 0 1 0 8.5 0 a4.25 4.25 0 1 0 -8.5 0zM633.25 93.5 a4.25 4.25 0 1 0 8.5 0 a4.25 4.25 0 1 0 -8.5 0zM616.25 263.5 a4.25 4.25 0 1 0 8.5 0 a4.25 4.25 0 1 0 -8.5 0zM650.25 59.5 a4.25 4.25 0 1 0 8.5 0 a4.25 4.25 0 1 0 -8.5 0zM633.25 76.5 a4.25 4.25 0 1 0 8.5 0 a4.25 4.25 0 1 0 -8.5 0z" fill="#dd1133"></path>
            <path d="M807.5 195.5L790.5 212.5L790.5 229.5L773.5 246.5M807.5 433.5L790.5 450.5L790.5 467.5L790.5 484.5M807.5 603.5L790.5 620.5L790.5 637.5L807.5 654.5L807.5 671.5L807.5 688.5L807.5 705.5L807.5 722.5M807.5 382.5L790.5 399.5L790.5 416.5L790.5 433.5M790.5 93.5L807.5 110.5M807.5 178.5L790.5 195.5M807.5 569.5L824.5 586.5L824.5 603.5L824.5 620.5M807.5 348.5L790.5 365.5L790.5 382.5M807.5 586.5L790.5 603.5M790.5 -8.5L790.5 8.5L790.5 25.5L790.5 42.5L790.5 59.5L790.5 76.5L790.5 93.5L790.5 110.5L807.5 127.5L807.5 144.5L807.5 161.5L807.5 178.5L807.5 195.5L807.5 212.5L807.5 229.5L807.5 246.5L807.5 263.5L807.5 280.5L807.5 297.5L807.5 314.5L807.5 331.5L807.5 348.5L807.5 365.5L807.5 382.5L807.5 399.5L807.5 416.5L807.5 433.5L807.5 450.5L807.5 467.5L807.5 484.5L807.5 501.5L807.5 518.5L807.5 535.5L807.5 552.5L807.5 569.5L807.5 586.5L807.5 603.5L807.5 620.5" stroke="#dd1133" stroke-width="2.83"></path>
            <path d="M803.25 620.5 a4.25 4.25 0 1 0 8.5 0 a4.25 4.25 0 1 0 -8.5 0zM769.25 246.5 a4.25 4.25 0 1 0 8.5 0 a4.25 4.25 0 1 0 -8.5 0zM786.25 484.5 a4.25 4.25 0 1 0 8.5 0 a4.25 4.25 0 1 0 -8.5 0zM803.25 722.5 a4.25 4.25 0 1 0 8.5 0 a4.25 4.25 0 1 0 -8.5 0zM786.25 433.5 a4.25 4.25 0 1 0 8.5 0 a4.25 4.25 0 1 0 -8.5 0zM803.25 110.5 a4.25 4.25 0 1 0 8.5 0 a4.25 4.25 0 1 0 -8.5 0zM786.25 195.5 a4.25 4.25 0 1 0 8.5 0 a4.25 4.25 0 1 0 -8.5 0zM820.25 620.5 a4.25 4.25 0 1 0 8.5 0 a4.25 4.25 0 1 0 -8.5 0zM786.25 382.5 a4.25 4.25 0 1 0 8.5 0 a4.25 4.25 0 1 0 -8.5 0zM786.25 603.5 a4.25 4.25 0 1 0 8.5 0 a4.25 4.25 0 1 0 -8.5 0z" fill="#dd1133"></path>
            <path d="M620.5 110.5L620.5 127.5L620.5 144.5M637.5 -8.5L620.5 8.5L620.5 25.5L620.5 42.5L620.5 59.5L620.5 76.5L620.5 93.5L620.5 110.5L637.5 127.5L637.5 144.5L637.5 161.5" stroke="rgba(215, 228, 221, 1)" stroke-width="2.83"></path>
            <path d="M633.25 161.5 a4.25 4.25 0 1 0 8.5 0 a4.25 4.25 0 1 0 -8.5 0zM616.25 144.5 a4.25 4.25 0 1 0 8.5 0 a4.25 4.25 0 1 0 -8.5 0z" fill="rgba(215, 228, 221, 1)"></path>
            <path d="M824.5 59.5L807.5 76.5L807.5 93.5M824.5 110.5L841.5 127.5M824.5 93.5L841.5 110.5M807.5 -8.5L807.5 8.5L807.5 25.5L807.5 42.5L824.5 59.5L824.5 76.5L824.5 93.5L824.5 110.5L824.5 127.5L824.5 144.5" stroke="rgba(215, 228, 221, 1)" stroke-width="2.83"></path>
            <path d="M820.25 144.5 a4.25 4.25 0 1 0 8.5 0 a4.25 4.25 0 1 0 -8.5 0zM803.25 93.5 a4.25 4.25 0 1 0 8.5 0 a4.25 4.25 0 1 0 -8.5 0zM837.25 127.5 a4.25 4.25 0 1 0 8.5 0 a4.25 4.25 0 1 0 -8.5 0zM837.25 110.5 a4.25 4.25 0 1 0 8.5 0 a4.25 4.25 0 1 0 -8.5 0z" fill="rgba(215, 228, 221, 1)"></path>
            <path d="M603.5 110.5L586.5 127.5L586.5 144.5L586.5 161.5L586.5 178.5M603.5 195.5L603.5 212.5M603.5 161.5L620.5 178.5L620.5 195.5L637.5 212.5M620.5 -8.5L603.5 8.5L603.5 25.5L603.5 42.5L603.5 59.5L603.5 76.5L603.5 93.5L603.5 110.5L603.5 127.5L603.5 144.5L603.5 161.5L603.5 178.5L603.5 195.5L620.5 212.5" stroke="rgba(215, 228, 221, 1)" stroke-width="2.83"></path>
            <path d="M616.25 212.5 a4.25 4.25 0 1 0 8.5 0 a4.25 4.25 0 1 0 -8.5 0zM582.25 178.5 a4.25 4.25 0 1 0 8.5 0 a4.25 4.25 0 1 0 -8.5 0zM599.25 212.5 a4.25 4.25 0 1 0 8.5 0 a4.25 4.25 0 1 0 -8.5 0zM633.25 212.5 a4.25 4.25 0 1 0 8.5 0 a4.25 4.25 0 1 0 -8.5 0z" fill="rgba(215, 228, 221, 1)"></path>
            <path d="M824.5 297.5L841.5 314.5L841.5 331.5L841.5 348.5L841.5 365.5L841.5 382.5M824.5 246.5L841.5 263.5L841.5 280.5L841.5 297.5L858.5 314.5L858.5 331.5L858.5 348.5L858.5 365.5L858.5 382.5L858.5 399.5M841.5 76.5L841.5 93.5M824.5 433.5L841.5 450.5L841.5 467.5L841.5 484.5L841.5 501.5L841.5 518.5L841.5 535.5L858.5 552.5L875.5 569.5L875.5 586.5M858.5 569.5L841.5 586.5L841.5 603.5M841.5 552.5L841.5 569.5M824.5 229.5L841.5 246.5L858.5 263.5L858.5 280.5L858.5 297.5M858.5 144.5L841.5 161.5L824.5 178.5M824.5 399.5L841.5 416.5L858.5 433.5L858.5 450.5L858.5 467.5M824.5 212.5L841.5 229.5L858.5 246.5L875.5 263.5M824.5 -8.5L824.5 8.5L824.5 25.5L824.5 42.5L841.5 59.5L841.5 76.5L858.5 93.5L858.5 110.5L858.5 127.5L858.5 144.5L858.5 161.5L841.5 178.5L824.5 195.5L824.5 212.5L824.5 229.5L824.5 246.5L824.5 263.5L824.5 280.5L824.5 297.5L824.5 314.5L824.5 331.5L824.5 348.5L824.5 365.5L824.5 382.5L824.5 399.5L824.5 416.5L824.5 433.5L824.5 450.5L824.5 467.5L824.5 484.5L824.5 501.5L824.5 518.5L824.5 535.5L841.5 552.5L858.5 569.5L858.5 586.5L858.5 603.5L858.5 620.5L858.5 637.5L858.5 654.5" stroke="#dd1133" stroke-width="2.83"></path>
            <path d="M854.25 654.5 a4.25 4.25 0 1 0 8.5 0 a4.25 4.25 0 1 0 -8.5 0zM837.25 382.5 a4.25 4.25 0 1 0 8.5 0 a4.25 4.25 0 1 0 -8.5 0zM854.25 399.5 a4.25 4.25 0 1 0 8.5 0 a4.25 4.25 0 1 0 -8.5 0zM837.25 93.5 a4.25 4.25 0 1 0 8.5 0 a4.25 4.25 0 1 0 -8.5 0zM871.25 586.5 a4.25 4.25 0 1 0 8.5 0 a4.25 4.25 0 1 0 -8.5 0zM837.25 603.5 a4.25 4.25 0 1 0 8.5 0 a4.25 4.25 0 1 0 -8.5 0zM837.25 569.5 a4.25 4.25 0 1 0 8.5 0 a4.25 4.25 0 1 0 -8.5 0zM854.25 297.5 a4.25 4.25 0 1 0 8.5 0 a4.25 4.25 0 1 0 -8.5 0zM820.25 178.5 a4.25 4.25 0 1 0 8.5 0 a4.25 4.25 0 1 0 -8.5 0zM854.25 467.5 a4.25 4.25 0 1 0 8.5 0 a4.25 4.25 0 1 0 -8.5 0zM871.25 263.5 a4.25 4.25 0 1 0 8.5 0 a4.25 4.25 0 1 0 -8.5 0z" fill="#dd1133"></path>
            <path d="M603.5 -8.5L586.5 8.5L569.5 25.5" stroke="rgba(215, 228, 221, 1)" stroke-width="2.83"></path>
            <path d="M565.25 25.5 a4.25 4.25 0 1 0 8.5 0 a4.25 4.25 0 1 0 -8.5 0z" fill="rgba(215, 228, 221, 1)"></path>
            <path d="M875.5 144.5L892.5 161.5M892.5 263.5L892.5 280.5L892.5 297.5L892.5 314.5L892.5 331.5M892.5 246.5L909.5 263.5L909.5 280.5L909.5 297.5L909.5 314.5M892.5 178.5L875.5 195.5L875.5 212.5M841.5 -8.5L841.5 8.5L841.5 25.5L841.5 42.5L858.5 59.5L858.5 76.5L875.5 93.5L875.5 110.5L875.5 127.5L875.5 144.5L875.5 161.5L892.5 178.5L892.5 195.5L892.5 212.5L892.5 229.5L892.5 246.5L892.5 263.5L875.5 280.5L875.5 297.5" stroke="rgba(215, 228, 221, 1)" stroke-width="2.83"></path>
            <path d="M871.25 297.5 a4.25 4.25 0 1 0 8.5 0 a4.25 4.25 0 1 0 -8.5 0zM888.25 161.5 a4.25 4.25 0 1 0 8.5 0 a4.25 4.25 0 1 0 -8.5 0zM888.25 331.5 a4.25 4.25 0 1 0 8.5 0 a4.25 4.25 0 1 0 -8.5 0zM905.25 314.5 a4.25 4.25 0 1 0 8.5 0 a4.25 4.25 0 1 0 -8.5 0zM871.25 212.5 a4.25 4.25 0 1 0 8.5 0 a4.25 4.25 0 1 0 -8.5 0z" fill="rgba(215, 228, 221, 1)"></path>
            <path d="M535.5 127.5L552.5 144.5L552.5 161.5L552.5 178.5L552.5 195.5M552.5 110.5L552.5 127.5L569.5 144.5L569.5 161.5M552.5 59.5L535.5 76.5L535.5 93.5M586.5 -8.5L569.5 8.5L552.5 25.5L552.5 42.5L552.5 59.5L552.5 76.5L552.5 93.5L552.5 110.5L535.5 127.5L535.5 144.5" stroke="rgba(215, 228, 221, 1)" stroke-width="2.83"></path>
            <path d="M531.25 144.5 a4.25 4.25 0 1 0 8.5 0 a4.25 4.25 0 1 0 -8.5 0zM548.25 195.5 a4.25 4.25 0 1 0 8.5 0 a4.25 4.25 0 1 0 -8.5 0zM565.25 161.5 a4.25 4.25 0 1 0 8.5 0 a4.25 4.25 0 1 0 -8.5 0zM531.25 93.5 a4.25 4.25 0 1 0 8.5 0 a4.25 4.25 0 1 0 -8.5 0z" fill="rgba(215, 228, 221, 1)"></path>
            <path d="M926.5 365.5L909.5 382.5L909.5 399.5L909.5 416.5L909.5 433.5L909.5 450.5L892.5 467.5L892.5 484.5L892.5 501.5L892.5 518.5L892.5 535.5L892.5 552.5L892.5 569.5L892.5 586.5M926.5 416.5L943.5 433.5M926.5 654.5L909.5 671.5M926.5 484.5L909.5 501.5L909.5 518.5L909.5 535.5L909.5 552.5L909.5 569.5L909.5 586.5L909.5 603.5L909.5 620.5L909.5 637.5L909.5 654.5M926.5 467.5L909.5 484.5M858.5 25.5L875.5 42.5L892.5 59.5L892.5 76.5M858.5 8.5L875.5 25.5M926.5 399.5L943.5 416.5M909.5 229.5L909.5 246.5M926.5 348.5L909.5 365.5L892.5 382.5L892.5 399.5L892.5 416.5M858.5 -8.5L858.5 8.5L858.5 25.5L858.5 42.5L875.5 59.5L875.5 76.5L892.5 93.5L892.5 110.5L892.5 127.5L909.5 144.5L909.5 161.5L909.5 178.5L909.5 195.5L909.5 212.5L909.5 229.5L926.5 246.5L926.5 263.5L926.5 280.5L926.5 297.5L926.5 314.5L926.5 331.5L926.5 348.5L926.5 365.5L926.5 382.5L926.5 399.5L926.5 416.5L926.5 433.5L926.5 450.5L926.5 467.5L926.5 484.5L926.5 501.5L926.5 518.5L926.5 535.5L926.5 552.5L926.5 569.5L926.5 586.5L926.5 603.5L926.5 620.5L926.5 637.5L926.5 654.5L926.5 671.5L926.5 688.5" stroke="rgba(215, 228, 221, 1)" stroke-width="2.83"></path>
            <path d="M922.25 688.5 a4.25 4.25 0 1 0 8.5 0 a4.25 4.25 0 1 0 -8.5 0zM888.25 586.5 a4.25 4.25 0 1 0 8.5 0 a4.25 4.25 0 1 0 -8.5 0zM939.25 433.5 a4.25 4.25 0 1 0 8.5 0 a4.25 4.25 0 1 0 -8.5 0zM905.25 671.5 a4.25 4.25 0 1 0 8.5 0 a4.25 4.25 0 1 0 -8.5 0zM905.25 654.5 a4.25 4.25 0 1 0 8.5 0 a4.25 4.25 0 1 0 -8.5 0zM905.25 484.5 a4.25 4.25 0 1 0 8.5 0 a4.25 4.25 0 1 0 -8.5 0zM888.25 76.5 a4.25 4.25 0 1 0 8.5 0 a4.25 4.25 0 1 0 -8.5 0zM871.25 25.5 a4.25 4.25 0 1 0 8.5 0 a4.25 4.25 0 1 0 -8.5 0zM939.25 416.5 a4.25 4.25 0 1 0 8.5 0 a4.25 4.25 0 1 0 -8.5 0zM905.25 246.5 a4.25 4.25 0 1 0 8.5 0 a4.25 4.25 0 1 0 -8.5 0zM888.25 416.5 a4.25 4.25 0 1 0 8.5 0 a4.25 4.25 0 1 0 -8.5 0z" fill="rgba(215, 228, 221, 1)"></path>
            <path d="M518.5 144.5L501.5 161.5L501.5 178.5L501.5 195.5L501.5 212.5M518.5 59.5L501.5 76.5L501.5 93.5L501.5 110.5L501.5 127.5L484.5 144.5M518.5 42.5L501.5 59.5M569.5 -8.5L552.5 8.5L535.5 25.5L518.5 42.5L518.5 59.5L518.5 76.5L518.5 93.5L518.5 110.5L518.5 127.5L518.5 144.5L518.5 161.5L518.5 178.5L518.5 195.5" stroke="rgba(215, 228, 221, 1)" stroke-width="2.83"></path>
            <path d="M514.25 195.5 a4.25 4.25 0 1 0 8.5 0 a4.25 4.25 0 1 0 -8.5 0zM497.25 212.5 a4.25 4.25 0 1 0 8.5 0 a4.25 4.25 0 1 0 -8.5 0zM480.25 144.5 a4.25 4.25 0 1 0 8.5 0 a4.25 4.25 0 1 0 -8.5 0zM497.25 59.5 a4.25 4.25 0 1 0 8.5 0 a4.25 4.25 0 1 0 -8.5 0z" fill="rgba(215, 228, 221, 1)"></path>
            <path d="M943.5 365.5L960.5 382.5M926.5 161.5L943.5 178.5L943.5 195.5L943.5 212.5M943.5 382.5L943.5 399.5M943.5 620.5L960.5 637.5L960.5 654.5L960.5 671.5L943.5 688.5L926.5 705.5L926.5 722.5M943.5 348.5L960.5 365.5M943.5 603.5L960.5 620.5L977.5 637.5L977.5 654.5M943.5 331.5L960.5 348.5M960.5 433.5L960.5 450.5L960.5 467.5L960.5 484.5L960.5 501.5M943.5 552.5L960.5 569.5L960.5 586.5L960.5 603.5L977.5 620.5M875.5 -8.5L892.5 8.5L892.5 25.5L909.5 42.5L909.5 59.5L909.5 76.5L909.5 93.5L909.5 110.5L909.5 127.5L926.5 144.5L926.5 161.5L926.5 178.5L926.5 195.5L926.5 212.5L926.5 229.5L943.5 246.5L943.5 263.5L943.5 280.5L943.5 297.5L943.5 314.5L943.5 331.5L943.5 348.5L943.5 365.5L943.5 382.5L960.5 399.5L960.5 416.5L960.5 433.5L943.5 450.5L943.5 467.5L943.5 484.5L943.5 501.5L943.5 518.5L943.5 535.5L943.5 552.5L943.5 569.5L943.5 586.5L943.5 603.5L943.5 620.5L943.5 637.5" stroke="#dd1133" stroke-width="2.83"></path>
            <path d="M939.25 637.5 a4.25 4.25 0 1 0 8.5 0 a4.25 4.25 0 1 0 -8.5 0zM956.25 382.5 a4.25 4.25 0 1 0 8.5 0 a4.25 4.25 0 1 0 -8.5 0zM939.25 212.5 a4.25 4.25 0 1 0 8.5 0 a4.25 4.25 0 1 0 -8.5 0zM939.25 399.5 a4.25 4.25 0 1 0 8.5 0 a4.25 4.25 0 1 0 -8.5 0zM922.25 722.5 a4.25 4.25 0 1 0 8.5 0 a4.25 4.25 0 1 0 -8.5 0zM956.25 365.5 a4.25 4.25 0 1 0 8.5 0 a4.25 4.25 0 1 0 -8.5 0zM973.25 654.5 a4.25 4.25 0 1 0 8.5 0 a4.25 4.25 0 1 0 -8.5 0zM956.25 348.5 a4.25 4.25 0 1 0 8.5 0 a4.25 4.25 0 1 0 -8.5 0zM956.25 501.5 a4.25 4.25 0 1 0 8.5 0 a4.25 4.25 0 1 0 -8.5 0zM973.25 620.5 a4.25 4.25 0 1 0 8.5 0 a4.25 4.25 0 1 0 -8.5 0z" fill="#dd1133"></path>
            <path d="M552.5 -8.5L535.5 8.5L518.5 25.5" stroke="rgba(215, 228, 221, 1)" stroke-width="2.83"></path>
            <path d="M514.25 25.5 a4.25 4.25 0 1 0 8.5 0 a4.25 4.25 0 1 0 -8.5 0z" fill="rgba(215, 228, 221, 1)"></path>
            <path d="M943.5 144.5L943.5 161.5M960.5 314.5L960.5 331.5M977.5 501.5L977.5 518.5L977.5 535.5L960.5 552.5M892.5 -8.5L909.5 8.5L909.5 25.5L926.5 42.5L926.5 59.5L926.5 76.5L926.5 93.5L926.5 110.5L926.5 127.5L943.5 144.5L960.5 161.5L960.5 178.5L960.5 195.5L960.5 212.5L960.5 229.5L960.5 246.5L960.5 263.5L960.5 280.5L960.5 297.5L960.5 314.5L977.5 331.5L977.5 348.5L977.5 365.5L977.5 382.5L977.5 399.5L977.5 416.5L977.5 433.5L977.5 450.5L977.5 467.5L977.5 484.5L977.5 501.5L960.5 518.5" stroke="#dd1133" stroke-width="2.83"></path>
            <path d="M956.25 518.5 a4.25 4.25 0 1 0 8.5 0 a4.25 4.25 0 1 0 -8.5 0zM939.25 161.5 a4.25 4.25 0 1 0 8.5 0 a4.25 4.25 0 1 0 -8.5 0zM956.25 331.5 a4.25 4.25 0 1 0 8.5 0 a4.25 4.25 0 1 0 -8.5 0zM956.25 552.5 a4.25 4.25 0 1 0 8.5 0 a4.25 4.25 0 1 0 -8.5 0z" fill="#dd1133"></path>
            <path d="M535.5 -8.5L518.5 8.5" stroke="#dd1133" stroke-width="2.83"></path>
            <path d="M514.25 8.5 a4.25 4.25 0 1 0 8.5 0 a4.25 4.25 0 1 0 -8.5 0z" fill="#dd1133"></path>
            <path d="M909.5 -8.5L926.5 8.5" stroke="rgba(215, 228, 221, 1)" stroke-width="2.83"></path>
            <path d="M922.25 8.5 a4.25 4.25 0 1 0 8.5 0 a4.25 4.25 0 1 0 -8.5 0z" fill="rgba(215, 228, 221, 1)"></path>
            <path d="M518.5 -8.5L501.5 8.5" stroke="rgba(215, 228, 221, 1)" stroke-width="2.83"></path>
            <path d="M497.25 8.5 a4.25 4.25 0 1 0 8.5 0 a4.25 4.25 0 1 0 -8.5 0z" fill="rgba(215, 228, 221, 1)"></path>
            <path d="M943.5 59.5L960.5 76.5M943.5 42.5L960.5 59.5M943.5 76.5L943.5 93.5L943.5 110.5M926.5 -8.5L943.5 8.5L943.5 25.5L943.5 42.5L943.5 59.5L943.5 76.5L960.5 93.5" stroke="#dd1133" stroke-width="2.83"></path>
            <path d="M956.25 93.5 a4.25 4.25 0 1 0 8.5 0 a4.25 4.25 0 1 0 -8.5 0zM956.25 76.5 a4.25 4.25 0 1 0 8.5 0 a4.25 4.25 0 1 0 -8.5 0zM956.25 59.5 a4.25 4.25 0 1 0 8.5 0 a4.25 4.25 0 1 0 -8.5 0zM939.25 110.5 a4.25 4.25 0 1 0 8.5 0 a4.25 4.25 0 1 0 -8.5 0z" fill="#dd1133"></path>
            <path d="M450.5 450.5L433.5 467.5L433.5 484.5L416.5 501.5M433.5 705.5L416.5 722.5M450.5 688.5L467.5 705.5L467.5 722.5M450.5 382.5L467.5 399.5L467.5 416.5M467.5 178.5L484.5 195.5L484.5 212.5L484.5 229.5M450.5 569.5L467.5 586.5M450.5 637.5L467.5 654.5L484.5 671.5L484.5 688.5L484.5 705.5M450.5 297.5L467.5 314.5L467.5 331.5M484.5 25.5L501.5 42.5M467.5 246.5L484.5 263.5L484.5 280.5L484.5 297.5M450.5 518.5L467.5 535.5L467.5 552.5L467.5 569.5L484.5 586.5L484.5 603.5L484.5 620.5L484.5 637.5L484.5 654.5L501.5 671.5L501.5 688.5L501.5 705.5L501.5 722.5M501.5 -8.5L484.5 8.5L484.5 25.5L484.5 42.5L484.5 59.5L484.5 76.5L484.5 93.5L484.5 110.5L467.5 127.5L467.5 144.5L467.5 161.5L467.5 178.5L467.5 195.5L467.5 212.5L467.5 229.5L467.5 246.5L467.5 263.5L450.5 280.5L450.5 297.5L450.5 314.5L450.5 331.5L450.5 348.5L450.5 365.5L450.5 382.5L450.5 399.5L450.5 416.5L450.5 433.5L450.5 450.5L450.5 467.5L450.5 484.5L450.5 501.5L450.5 518.5L450.5 535.5L450.5 552.5L450.5 569.5L450.5 586.5L450.5 603.5L450.5 620.5L450.5 637.5L450.5 654.5L450.5 671.5L450.5 688.5L433.5 705.5L433.5 722.5" stroke="#dd1133" stroke-width="2.83"></path>
            <path d="M429.25 722.5 a4.25 4.25 0 1 0 8.5 0 a4.25 4.25 0 1 0 -8.5 0zM412.25 501.5 a4.25 4.25 0 1 0 8.5 0 a4.25 4.25 0 1 0 -8.5 0zM412.25 722.5 a4.25 4.25 0 1 0 8.5 0 a4.25 4.25 0 1 0 -8.5 0zM463.25 722.5 a4.25 4.25 0 1 0 8.5 0 a4.25 4.25 0 1 0 -8.5 0zM463.25 416.5 a4.25 4.25 0 1 0 8.5 0 a4.25 4.25 0 1 0 -8.5 0zM480.25 229.5 a4.25 4.25 0 1 0 8.5 0 a4.25 4.25 0 1 0 -8.5 0zM463.25 586.5 a4.25 4.25 0 1 0 8.5 0 a4.25 4.25 0 1 0 -8.5 0zM480.25 705.5 a4.25 4.25 0 1 0 8.5 0 a4.25 4.25 0 1 0 -8.5 0zM463.25 331.5 a4.25 4.25 0 1 0 8.5 0 a4.25 4.25 0 1 0 -8.5 0zM497.25 42.5 a4.25 4.25 0 1 0 8.5 0 a4.25 4.25 0 1 0 -8.5 0zM480.25 297.5 a4.25 4.25 0 1 0 8.5 0 a4.25 4.25 0 1 0 -8.5 0zM497.25 722.5 a4.25 4.25 0 1 0 8.5 0 a4.25 4.25 0 1 0 -8.5 0z" fill="#dd1133"></path>
            <path d="M994.5 552.5L1011.5 569.5L1028.5 586.5L1028.5 603.5L1028.5 620.5L1028.5 637.5L1045.5 654.5L1045.5 671.5L1045.5 688.5L1045.5 705.5L1045.5 722.5M977.5 229.5L994.5 246.5L994.5 263.5M994.5 637.5L1011.5 654.5L1028.5 671.5L1028.5 688.5L1028.5 705.5L1028.5 722.5M994.5 535.5L1011.5 552.5L1028.5 569.5L1045.5 586.5L1045.5 603.5L1045.5 620.5L1045.5 637.5L1062.5 654.5L1062.5 671.5M977.5 297.5L994.5 314.5M994.5 416.5L1011.5 433.5L1011.5 450.5L1011.5 467.5M960.5 25.5L960.5 42.5M977.5 110.5L960.5 127.5M977.5 161.5L994.5 178.5L1011.5 195.5L1011.5 212.5L1011.5 229.5L1011.5 246.5L1028.5 263.5L1028.5 280.5L1028.5 297.5L1045.5 314.5L1045.5 331.5L1045.5 348.5L1045.5 365.5L1045.5 382.5L1045.5 399.5L1045.5 416.5L1045.5 433.5L1028.5 450.5L1028.5 467.5L1028.5 484.5L1028.5 501.5M977.5 127.5L994.5 144.5L994.5 161.5L1011.5 178.5M994.5 705.5L977.5 722.5M943.5 -8.5L960.5 8.5L960.5 25.5L977.5 42.5L977.5 59.5L977.5 76.5L977.5 93.5L977.5 110.5L977.5 127.5L977.5 144.5L977.5 161.5L977.5 178.5L977.5 195.5L977.5 212.5L977.5 229.5L977.5 246.5L977.5 263.5L977.5 280.5L977.5 297.5L977.5 314.5L994.5 331.5L994.5 348.5L994.5 365.5L994.5 382.5L994.5 399.5L994.5 416.5L994.5 433.5L994.5 450.5L994.5 467.5L994.5 484.5L994.5 501.5L994.5 518.5L994.5 535.5L994.5 552.5L994.5 569.5L994.5 586.5L994.5 603.5L994.5 620.5L994.5 637.5L994.5 654.5L977.5 671.5L977.5 688.5L994.5 705.5L994.5 722.5" stroke="rgba(215, 228, 221, 1)" stroke-width="2.83"></path>
            <path d="M990.25 722.5 a4.25 4.25 0 1 0 8.5 0 a4.25 4.25 0 1 0 -8.5 0zM1041.25 722.5 a4.25 4.25 0 1 0 8.5 0 a4.25 4.25 0 1 0 -8.5 0zM990.25 263.5 a4.25 4.25 0 1 0 8.5 0 a4.25 4.25 0 1 0 -8.5 0zM1024.25 722.5 a4.25 4.25 0 1 0 8.5 0 a4.25 4.25 0 1 0 -8.5 0zM1058.25 671.5 a4.25 4.25 0 1 0 8.5 0 a4.25 4.25 0 1 0 -8.5 0zM990.25 314.5 a4.25 4.25 0 1 0 8.5 0 a4.25 4.25 0 1 0 -8.5 0zM1007.25 467.5 a4.25 4.25 0 1 0 8.5 0 a4.25 4.25 0 1 0 -8.5 0zM956.25 42.5 a4.25 4.25 0 1 0 8.5 0 a4.25 4.25 0 1 0 -8.5 0zM956.25 127.5 a4.25 4.25 0 1 0 8.5 0 a4.25 4.25 0 1 0 -8.5 0zM1024.25 501.5 a4.25 4.25 0 1 0 8.5 0 a4.25 4.25 0 1 0 -8.5 0zM1007.25 178.5 a4.25 4.25 0 1 0 8.5 0 a4.25 4.25 0 1 0 -8.5 0zM973.25 722.5 a4.25 4.25 0 1 0 8.5 0 a4.25 4.25 0 1 0 -8.5 0z" fill="rgba(215, 228, 221, 1)"></path>
            <path d="M484.5 -8.5L467.5 8.5L467.5 25.5L467.5 42.5L467.5 59.5L467.5 76.5L467.5 93.5L467.5 110.5L450.5 127.5L450.5 144.5L450.5 161.5L450.5 178.5L450.5 195.5L450.5 212.5L450.5 229.5L450.5 246.5L450.5 263.5L433.5 280.5L433.5 297.5L433.5 314.5" stroke="#dd1133" stroke-width="2.83"></path>
            <path d="M429.25 314.5 a4.25 4.25 0 1 0 8.5 0 a4.25 4.25 0 1 0 -8.5 0z" fill="#dd1133"></path>
            <path d="M1028.5 195.5L1045.5 212.5L1045.5 229.5L1045.5 246.5M1028.5 178.5L1045.5 195.5M1011.5 144.5L1011.5 161.5M960.5 -8.5L977.5 8.5L977.5 25.5L994.5 42.5L994.5 59.5L994.5 76.5L994.5 93.5L994.5 110.5L1011.5 127.5L1011.5 144.5L1028.5 161.5L1028.5 178.5L1028.5 195.5L1028.5 212.5" stroke="#dd1133" stroke-width="2.83"></path>
            <path d="M1024.25 212.5 a4.25 4.25 0 1 0 8.5 0 a4.25 4.25 0 1 0 -8.5 0zM1041.25 246.5 a4.25 4.25 0 1 0 8.5 0 a4.25 4.25 0 1 0 -8.5 0zM1041.25 195.5 a4.25 4.25 0 1 0 8.5 0 a4.25 4.25 0 1 0 -8.5 0zM1007.25 161.5 a4.25 4.25 0 1 0 8.5 0 a4.25 4.25 0 1 0 -8.5 0z" fill="#dd1133"></path>
            <path d="M467.5 -8.5L450.5 8.5L450.5 25.5L450.5 42.5L450.5 59.5L450.5 76.5L450.5 93.5" stroke="rgba(215, 228, 221, 1)" stroke-width="2.83"></path>
            <path d="M446.25 93.5 a4.25 4.25 0 1 0 8.5 0 a4.25 4.25 0 1 0 -8.5 0z" fill="rgba(215, 228, 221, 1)"></path>
            <path d="M1011.5 93.5L1028.5 110.5M977.5 -8.5L994.5 8.5L994.5 25.5L1011.5 42.5L1011.5 59.5L1011.5 76.5L1011.5 93.5L1011.5 110.5L1028.5 127.5" stroke="rgba(215, 228, 221, 1)" stroke-width="2.83"></path>
            <path d="M1024.25 127.5 a4.25 4.25 0 1 0 8.5 0 a4.25 4.25 0 1 0 -8.5 0zM1024.25 110.5 a4.25 4.25 0 1 0 8.5 0 a4.25 4.25 0 1 0 -8.5 0z" fill="rgba(215, 228, 221, 1)"></path>
            <path d="M433.5 246.5L416.5 263.5L399.5 280.5L399.5 297.5L399.5 314.5M433.5 382.5L416.5 399.5L416.5 416.5L433.5 433.5L433.5 450.5L416.5 467.5L416.5 484.5L399.5 501.5L399.5 518.5M416.5 348.5L416.5 365.5L416.5 382.5M433.5 229.5L416.5 246.5M433.5 212.5L416.5 229.5M416.5 331.5L433.5 348.5M450.5 -8.5L433.5 8.5L433.5 25.5L433.5 42.5L433.5 59.5L433.5 76.5L433.5 93.5L433.5 110.5L433.5 127.5L433.5 144.5L433.5 161.5L433.5 178.5L433.5 195.5L433.5 212.5L433.5 229.5L433.5 246.5L433.5 263.5L416.5 280.5L416.5 297.5L416.5 314.5L416.5 331.5L416.5 348.5L433.5 365.5L433.5 382.5L433.5 399.5" stroke="#dd1133" stroke-width="2.83"></path>
            <path d="M429.25 399.5 a4.25 4.25 0 1 0 8.5 0 a4.25 4.25 0 1 0 -8.5 0zM395.25 314.5 a4.25 4.25 0 1 0 8.5 0 a4.25 4.25 0 1 0 -8.5 0zM395.25 518.5 a4.25 4.25 0 1 0 8.5 0 a4.25 4.25 0 1 0 -8.5 0zM412.25 382.5 a4.25 4.25 0 1 0 8.5 0 a4.25 4.25 0 1 0 -8.5 0zM412.25 246.5 a4.25 4.25 0 1 0 8.5 0 a4.25 4.25 0 1 0 -8.5 0zM412.25 229.5 a4.25 4.25 0 1 0 8.5 0 a4.25 4.25 0 1 0 -8.5 0zM429.25 348.5 a4.25 4.25 0 1 0 8.5 0 a4.25 4.25 0 1 0 -8.5 0z" fill="#dd1133"></path>
            <path d="M1079.5 229.5L1062.5 246.5L1062.5 263.5M1062.5 314.5L1079.5 331.5L1079.5 348.5L1079.5 365.5L1079.5 382.5M1062.5 399.5L1079.5 416.5L1096.5 433.5L1096.5 450.5L1096.5 467.5M1079.5 280.5L1062.5 297.5M1028.5 76.5L1028.5 93.5M1079.5 297.5L1079.5 314.5M994.5 -8.5L1011.5 8.5L1011.5 25.5L1028.5 42.5L1028.5 59.5L1028.5 76.5L1045.5 93.5L1045.5 110.5L1045.5 127.5L1062.5 144.5L1062.5 161.5L1062.5 178.5L1062.5 195.5L1062.5 212.5L1079.5 229.5L1079.5 246.5L1079.5 263.5L1079.5 280.5L1079.5 297.5L1062.5 314.5L1062.5 331.5L1062.5 348.5L1062.5 365.5L1062.5 382.5L1062.5 399.5L1062.5 416.5L1079.5 433.5" stroke="#dd1133" stroke-width="2.83"></path>
            <path d="M1075.25 433.5 a4.25 4.25 0 1 0 8.5 0 a4.25 4.25 0 1 0 -8.5 0zM1058.25 263.5 a4.25 4.25 0 1 0 8.5 0 a4.25 4.25 0 1 0 -8.5 0zM1075.25 382.5 a4.25 4.25 0 1 0 8.5 0 a4.25 4.25 0 1 0 -8.5 0zM1092.25 467.5 a4.25 4.25 0 1 0 8.5 0 a4.25 4.25 0 1 0 -8.5 0zM1058.25 297.5 a4.25 4.25 0 1 0 8.5 0 a4.25 4.25 0 1 0 -8.5 0zM1024.25 93.5 a4.25 4.25 0 1 0 8.5 0 a4.25 4.25 0 1 0 -8.5 0zM1075.25 314.5 a4.25 4.25 0 1 0 8.5 0 a4.25 4.25 0 1 0 -8.5 0z" fill="#dd1133"></path>
            <path d="M382.5 297.5L365.5 314.5M382.5 246.5L365.5 263.5L365.5 280.5L365.5 297.5L348.5 314.5M365.5 501.5L382.5 518.5L382.5 535.5L382.5 552.5L382.5 569.5L382.5 586.5L382.5 603.5L382.5 620.5L382.5 637.5L382.5 654.5L382.5 671.5L382.5 688.5M399.5 212.5L382.5 229.5L365.5 246.5L348.5 263.5L348.5 280.5L348.5 297.5M416.5 76.5L399.5 93.5L399.5 110.5L399.5 127.5L399.5 144.5L399.5 161.5M399.5 365.5L382.5 382.5L382.5 399.5L382.5 416.5L382.5 433.5L382.5 450.5M416.5 42.5L399.5 59.5L399.5 76.5M399.5 229.5L399.5 246.5L399.5 263.5M365.5 552.5L348.5 569.5L348.5 586.5L348.5 603.5L348.5 620.5M433.5 -8.5L416.5 8.5L416.5 25.5L416.5 42.5L416.5 59.5L416.5 76.5L416.5 93.5L416.5 110.5L416.5 127.5L416.5 144.5L416.5 161.5L416.5 178.5L416.5 195.5L399.5 212.5L399.5 229.5L382.5 246.5L382.5 263.5L382.5 280.5L382.5 297.5L382.5 314.5L382.5 331.5L399.5 348.5L399.5 365.5L399.5 382.5L399.5 399.5L399.5 416.5L399.5 433.5L399.5 450.5L399.5 467.5L382.5 484.5L365.5 501.5L365.5 518.5L365.5 535.5L365.5 552.5L365.5 569.5L365.5 586.5L365.5 603.5" stroke="#dd1133" stroke-width="2.83"></path>
            <path d="M361.25 603.5 a4.25 4.25 0 1 0 8.5 0 a4.25 4.25 0 1 0 -8.5 0zM361.25 314.5 a4.25 4.25 0 1 0 8.5 0 a4.25 4.25 0 1 0 -8.5 0zM344.25 314.5 a4.25 4.25 0 1 0 8.5 0 a4.25 4.25 0 1 0 -8.5 0zM378.25 688.5 a4.25 4.25 0 1 0 8.5 0 a4.25 4.25 0 1 0 -8.5 0zM344.25 297.5 a4.25 4.25 0 1 0 8.5 0 a4.25 4.25 0 1 0 -8.5 0zM395.25 161.5 a4.25 4.25 0 1 0 8.5 0 a4.25 4.25 0 1 0 -8.5 0zM378.25 450.5 a4.25 4.25 0 1 0 8.5 0 a4.25 4.25 0 1 0 -8.5 0zM395.25 76.5 a4.25 4.25 0 1 0 8.5 0 a4.25 4.25 0 1 0 -8.5 0zM395.25 263.5 a4.25 4.25 0 1 0 8.5 0 a4.25 4.25 0 1 0 -8.5 0zM344.25 620.5 a4.25 4.25 0 1 0 8.5 0 a4.25 4.25 0 1 0 -8.5 0z" fill="#dd1133"></path>
            <path d="M1079.5 161.5L1096.5 178.5M1079.5 144.5L1096.5 161.5M1079.5 195.5L1096.5 212.5M1011.5 -8.5L1028.5 8.5L1028.5 25.5L1045.5 42.5L1045.5 59.5L1045.5 76.5L1062.5 93.5L1062.5 110.5L1062.5 127.5L1079.5 144.5L1079.5 161.5L1079.5 178.5L1079.5 195.5L1079.5 212.5L1096.5 229.5L1096.5 246.5L1096.5 263.5L1096.5 280.5L1096.5 297.5L1096.5 314.5L1096.5 331.5" stroke="rgba(215, 228, 221, 1)" stroke-width="2.83"></path>
            <path d="M1092.25 331.5 a4.25 4.25 0 1 0 8.5 0 a4.25 4.25 0 1 0 -8.5 0zM1092.25 178.5 a4.25 4.25 0 1 0 8.5 0 a4.25 4.25 0 1 0 -8.5 0zM1092.25 161.5 a4.25 4.25 0 1 0 8.5 0 a4.25 4.25 0 1 0 -8.5 0zM1092.25 212.5 a4.25 4.25 0 1 0 8.5 0 a4.25 4.25 0 1 0 -8.5 0z" fill="rgba(215, 228, 221, 1)"></path>
            <path d="M399.5 8.5L399.5 25.5L399.5 42.5M416.5 -8.5L399.5 8.5L382.5 25.5L382.5 42.5L382.5 59.5L382.5 76.5" stroke="rgba(215, 228, 221, 1)" stroke-width="2.83"></path>
            <path d="M378.25 76.5 a4.25 4.25 0 1 0 8.5 0 a4.25 4.25 0 1 0 -8.5 0zM395.25 42.5 a4.25 4.25 0 1 0 8.5 0 a4.25 4.25 0 1 0 -8.5 0z" fill="rgba(215, 228, 221, 1)"></path>
            <path d="M1028.5 -8.5L1045.5 8.5L1045.5 25.5L1062.5 42.5L1062.5 59.5" stroke="#dd1133" stroke-width="2.83"></path>
            <path d="M1058.25 59.5 a4.25 4.25 0 1 0 8.5 0 a4.25 4.25 0 1 0 -8.5 0z" fill="#dd1133"></path>
            <path d="M365.5 76.5L365.5 93.5L365.5 110.5L365.5 127.5L382.5 144.5M331.5 212.5L348.5 229.5M331.5 161.5L348.5 178.5L365.5 195.5M331.5 229.5L314.5 246.5M399.5 -8.5L382.5 8.5L365.5 25.5L365.5 42.5L365.5 59.5L365.5 76.5L348.5 93.5L348.5 110.5L348.5 127.5L348.5 144.5L331.5 161.5L331.5 178.5L331.5 195.5L331.5 212.5L331.5 229.5L331.5 246.5L331.5 263.5" stroke="rgba(215, 228, 221, 1)" stroke-width="2.83"></path>
            <path d="M327.25 263.5 a4.25 4.25 0 1 0 8.5 0 a4.25 4.25 0 1 0 -8.5 0zM378.25 144.5 a4.25 4.25 0 1 0 8.5 0 a4.25 4.25 0 1 0 -8.5 0zM344.25 229.5 a4.25 4.25 0 1 0 8.5 0 a4.25 4.25 0 1 0 -8.5 0zM361.25 195.5 a4.25 4.25 0 1 0 8.5 0 a4.25 4.25 0 1 0 -8.5 0zM310.25 246.5 a4.25 4.25 0 1 0 8.5 0 a4.25 4.25 0 1 0 -8.5 0z" fill="rgba(215, 228, 221, 1)"></path>
            <path d="M1079.5 59.5L1079.5 76.5M1045.5 -8.5L1062.5 8.5L1062.5 25.5L1079.5 42.5L1079.5 59.5L1062.5 76.5" stroke="#dd1133" stroke-width="2.83"></path>
            <path d="M1058.25 76.5 a4.25 4.25 0 1 0 8.5 0 a4.25 4.25 0 1 0 -8.5 0zM1075.25 76.5 a4.25 4.25 0 1 0 8.5 0 a4.25 4.25 0 1 0 -8.5 0z" fill="#dd1133"></path>
            <path d="M382.5 -8.5L365.5 8.5L348.5 25.5L348.5 42.5L348.5 59.5L348.5 76.5L331.5 93.5L331.5 110.5L331.5 127.5L331.5 144.5L314.5 161.5L314.5 178.5" stroke="rgba(215, 228, 221, 1)" stroke-width="2.83"></path>
            <path d="M310.25 178.5 a4.25 4.25 0 1 0 8.5 0 a4.25 4.25 0 1 0 -8.5 0z" fill="rgba(215, 228, 221, 1)"></path>
            <path d="M1113.5 59.5L1130.5 76.5L1147.5 93.5M1113.5 365.5L1096.5 382.5L1096.5 399.5L1096.5 416.5M1113.5 93.5L1130.5 110.5L1130.5 127.5L1130.5 144.5M1113.5 229.5L1130.5 246.5L1130.5 263.5M1113.5 127.5L1096.5 144.5M1113.5 161.5L1130.5 178.5L1130.5 195.5L1130.5 212.5L1130.5 229.5L1147.5 246.5L1147.5 263.5L1147.5 280.5L1147.5 297.5M1062.5 -8.5L1079.5 8.5L1079.5 25.5L1096.5 42.5L1113.5 59.5L1113.5 76.5L1113.5 93.5L1113.5 110.5L1113.5 127.5L1113.5 144.5L1113.5 161.5L1113.5 178.5L1113.5 195.5L1113.5 212.5L1113.5 229.5L1113.5 246.5L1113.5 263.5L1113.5 280.5L1113.5 297.5L1113.5 314.5L1113.5 331.5L1113.5 348.5L1113.5 365.5L1113.5 382.5" stroke="#dd1133" stroke-width="2.83"></path>
            <path d="M1109.25 382.5 a4.25 4.25 0 1 0 8.5 0 a4.25 4.25 0 1 0 -8.5 0zM1143.25 93.5 a4.25 4.25 0 1 0 8.5 0 a4.25 4.25 0 1 0 -8.5 0zM1092.25 416.5 a4.25 4.25 0 1 0 8.5 0 a4.25 4.25 0 1 0 -8.5 0zM1126.25 144.5 a4.25 4.25 0 1 0 8.5 0 a4.25 4.25 0 1 0 -8.5 0zM1126.25 263.5 a4.25 4.25 0 1 0 8.5 0 a4.25 4.25 0 1 0 -8.5 0zM1092.25 144.5 a4.25 4.25 0 1 0 8.5 0 a4.25 4.25 0 1 0 -8.5 0zM1143.25 297.5 a4.25 4.25 0 1 0 8.5 0 a4.25 4.25 0 1 0 -8.5 0z" fill="#dd1133"></path>
            <path d="M331.5 348.5L314.5 365.5L314.5 382.5L314.5 399.5L314.5 416.5L314.5 433.5L314.5 450.5L314.5 467.5M297.5 195.5L314.5 212.5L314.5 229.5M331.5 382.5L348.5 399.5L348.5 416.5L348.5 433.5M297.5 161.5L280.5 178.5L280.5 195.5L280.5 212.5L280.5 229.5L280.5 246.5L280.5 263.5L280.5 280.5L280.5 297.5L263.5 314.5L263.5 331.5L263.5 348.5L263.5 365.5M314.5 110.5L297.5 127.5L297.5 144.5L280.5 161.5M331.5 314.5L314.5 331.5M331.5 42.5L314.5 59.5L314.5 76.5L297.5 93.5L297.5 110.5L280.5 127.5L280.5 144.5L263.5 161.5L263.5 178.5L263.5 195.5L263.5 212.5L263.5 229.5L263.5 246.5L263.5 263.5M314.5 263.5L297.5 280.5L297.5 297.5L297.5 314.5L297.5 331.5L297.5 348.5L297.5 365.5L297.5 382.5L297.5 399.5L297.5 416.5L297.5 433.5L297.5 450.5L297.5 467.5M365.5 -8.5L348.5 8.5L331.5 25.5L331.5 42.5L331.5 59.5L331.5 76.5L314.5 93.5L314.5 110.5L314.5 127.5L314.5 144.5L297.5 161.5L297.5 178.5L297.5 195.5L297.5 212.5L297.5 229.5L297.5 246.5L314.5 263.5L314.5 280.5L314.5 297.5L331.5 314.5L331.5 331.5L331.5 348.5L331.5 365.5L331.5 382.5L331.5 399.5L331.5 416.5L331.5 433.5L331.5 450.5L331.5 467.5L331.5 484.5L331.5 501.5L331.5 518.5" stroke="rgba(215, 228, 221, 1)" stroke-width="2.83"></path>
            <path d="M327.25 518.5 a4.25 4.25 0 1 0 8.5 0 a4.25 4.25 0 1 0 -8.5 0zM310.25 467.5 a4.25 4.25 0 1 0 8.5 0 a4.25 4.25 0 1 0 -8.5 0zM310.25 229.5 a4.25 4.25 0 1 0 8.5 0 a4.25 4.25 0 1 0 -8.5 0zM344.25 433.5 a4.25 4.25 0 1 0 8.5 0 a4.25 4.25 0 1 0 -8.5 0zM259.25 365.5 a4.25 4.25 0 1 0 8.5 0 a4.25 4.25 0 1 0 -8.5 0zM276.25 161.5 a4.25 4.25 0 1 0 8.5 0 a4.25 4.25 0 1 0 -8.5 0zM310.25 331.5 a4.25 4.25 0 1 0 8.5 0 a4.25 4.25 0 1 0 -8.5 0zM259.25 263.5 a4.25 4.25 0 1 0 8.5 0 a4.25 4.25 0 1 0 -8.5 0zM293.25 467.5 a4.25 4.25 0 1 0 8.5 0 a4.25 4.25 0 1 0 -8.5 0z" fill="rgba(215, 228, 221, 1)"></path>
        </g>
    </g>
    <defs>
        <mask id="SvgjsMask3361">
            <rect width="1440" height="760" fill="#ffffff"></rect>
        </mask>
        <linearGradient x1="50%" y1="0%" x2="50%" y2="100%" gradientUnits="userSpaceOnUse" id="SvgjsLinearGradient3362">
            <stop stop-color="rgba(14, 42, 71, 1)" offset="0"></stop>
            <stop stop-color="rgba(158, 0, 63, 1)" offset="0.83"></stop>
        </linearGradient>
        <mask id="SvgjsMask3363">
            <rect width="1440" height="760" fill="white"></rect>
            <path d="M720.37 59.5 a2.13 2.13 0 1 0 4.26 0 a2.13 2.13 0 1 0 -4.26 0z" fill="black"></path>
            <path d="M703.37 178.5 a2.13 2.13 0 1 0 4.26 0 a2.13 2.13 0 1 0 -4.26 0zM686.37 127.5 a2.13 2.13 0 1 0 4.26 0 a2.13 2.13 0 1 0 -4.26 0zM686.37 76.5 a2.13 2.13 0 1 0 4.26 0 a2.13 2.13 0 1 0 -4.26 0zM686.37 110.5 a2.13 2.13 0 1 0 4.26 0 a2.13 2.13 0 1 0 -4.26 0z" fill="black"></path>
            <path d="M737.37 59.5 a2.13 2.13 0 1 0 4.26 0 a2.13 2.13 0 1 0 -4.26 0z" fill="black"></path>
            <path d="M737.37 178.5 a2.13 2.13 0 1 0 4.26 0 a2.13 2.13 0 1 0 -4.26 0zM754.37 161.5 a2.13 2.13 0 1 0 4.26 0 a2.13 2.13 0 1 0 -4.26 0zM720.37 144.5 a2.13 2.13 0 1 0 4.26 0 a2.13 2.13 0 1 0 -4.26 0z" fill="black"></path>
            <path d="M703.37 518.5 a2.13 2.13 0 1 0 4.26 0 a2.13 2.13 0 1 0 -4.26 0zM703.37 484.5 a2.13 2.13 0 1 0 4.26 0 a2.13 2.13 0 1 0 -4.26 0zM669.37 552.5 a2.13 2.13 0 1 0 4.26 0 a2.13 2.13 0 1 0 -4.26 0zM737.37 450.5 a2.13 2.13 0 1 0 4.26 0 a2.13 2.13 0 1 0 -4.26 0zM754.37 552.5 a2.13 2.13 0 1 0 4.26 0 a2.13 2.13 0 1 0 -4.26 0zM703.37 382.5 a2.13 2.13 0 1 0 4.26 0 a2.13 2.13 0 1 0 -4.26 0zM669.37 161.5 a2.13 2.13 0 1 0 4.26 0 a2.13 2.13 0 1 0 -4.26 0zM737.37 433.5 a2.13 2.13 0 1 0 4.26 0 a2.13 2.13 0 1 0 -4.26 0zM669.37 246.5 a2.13 2.13 0 1 0 4.26 0 a2.13 2.13 0 1 0 -4.26 0z" fill="black"></path>
            <path d="M788.37 654.5 a2.13 2.13 0 1 0 4.26 0 a2.13 2.13 0 1 0 -4.26 0zM771.37 416.5 a2.13 2.13 0 1 0 4.26 0 a2.13 2.13 0 1 0 -4.26 0zM737.37 365.5 a2.13 2.13 0 1 0 4.26 0 a2.13 2.13 0 1 0 -4.26 0zM737.37 348.5 a2.13 2.13 0 1 0 4.26 0 a2.13 2.13 0 1 0 -4.26 0zM788.37 569.5 a2.13 2.13 0 1 0 4.26 0 a2.13 2.13 0 1 0 -4.26 0zM771.37 467.5 a2.13 2.13 0 1 0 4.26 0 a2.13 2.13 0 1 0 -4.26 0zM771.37 212.5 a2.13 2.13 0 1 0 4.26 0 a2.13 2.13 0 1 0 -4.26 0zM788.37 535.5 a2.13 2.13 0 1 0 4.26 0 a2.13 2.13 0 1 0 -4.26 0zM737.37 331.5 a2.13 2.13 0 1 0 4.26 0 a2.13 2.13 0 1 0 -4.26 0zM754.37 501.5 a2.13 2.13 0 1 0 4.26 0 a2.13 2.13 0 1 0 -4.26 0zM788.37 331.5 a2.13 2.13 0 1 0 4.26 0 a2.13 2.13 0 1 0 -4.26 0z" fill="black"></path>
            <path d="M635.37 263.5 a2.13 2.13 0 1 0 4.26 0 a2.13 2.13 0 1 0 -4.26 0zM635.37 93.5 a2.13 2.13 0 1 0 4.26 0 a2.13 2.13 0 1 0 -4.26 0zM618.37 263.5 a2.13 2.13 0 1 0 4.26 0 a2.13 2.13 0 1 0 -4.26 0zM652.37 59.5 a2.13 2.13 0 1 0 4.26 0 a2.13 2.13 0 1 0 -4.26 0zM635.37 76.5 a2.13 2.13 0 1 0 4.26 0 a2.13 2.13 0 1 0 -4.26 0z" fill="black"></path>
            <path d="M805.37 620.5 a2.13 2.13 0 1 0 4.26 0 a2.13 2.13 0 1 0 -4.26 0zM771.37 246.5 a2.13 2.13 0 1 0 4.26 0 a2.13 2.13 0 1 0 -4.26 0zM788.37 484.5 a2.13 2.13 0 1 0 4.26 0 a2.13 2.13 0 1 0 -4.26 0zM805.37 722.5 a2.13 2.13 0 1 0 4.26 0 a2.13 2.13 0 1 0 -4.26 0zM788.37 433.5 a2.13 2.13 0 1 0 4.26 0 a2.13 2.13 0 1 0 -4.26 0zM805.37 110.5 a2.13 2.13 0 1 0 4.26 0 a2.13 2.13 0 1 0 -4.26 0zM788.37 195.5 a2.13 2.13 0 1 0 4.26 0 a2.13 2.13 0 1 0 -4.26 0zM822.37 620.5 a2.13 2.13 0 1 0 4.26 0 a2.13 2.13 0 1 0 -4.26 0zM788.37 382.5 a2.13 2.13 0 1 0 4.26 0 a2.13 2.13 0 1 0 -4.26 0zM788.37 603.5 a2.13 2.13 0 1 0 4.26 0 a2.13 2.13 0 1 0 -4.26 0z" fill="black"></path>
            <path d="M635.37 161.5 a2.13 2.13 0 1 0 4.26 0 a2.13 2.13 0 1 0 -4.26 0zM618.37 144.5 a2.13 2.13 0 1 0 4.26 0 a2.13 2.13 0 1 0 -4.26 0z" fill="black"></path>
            <path d="M822.37 144.5 a2.13 2.13 0 1 0 4.26 0 a2.13 2.13 0 1 0 -4.26 0zM805.37 93.5 a2.13 2.13 0 1 0 4.26 0 a2.13 2.13 0 1 0 -4.26 0zM839.37 127.5 a2.13 2.13 0 1 0 4.26 0 a2.13 2.13 0 1 0 -4.26 0zM839.37 110.5 a2.13 2.13 0 1 0 4.26 0 a2.13 2.13 0 1 0 -4.26 0z" fill="black"></path>
            <path d="M618.37 212.5 a2.13 2.13 0 1 0 4.26 0 a2.13 2.13 0 1 0 -4.26 0zM584.37 178.5 a2.13 2.13 0 1 0 4.26 0 a2.13 2.13 0 1 0 -4.26 0zM601.37 212.5 a2.13 2.13 0 1 0 4.26 0 a2.13 2.13 0 1 0 -4.26 0zM635.37 212.5 a2.13 2.13 0 1 0 4.26 0 a2.13 2.13 0 1 0 -4.26 0z" fill="black"></path>
            <path d="M856.37 654.5 a2.13 2.13 0 1 0 4.26 0 a2.13 2.13 0 1 0 -4.26 0zM839.37 382.5 a2.13 2.13 0 1 0 4.26 0 a2.13 2.13 0 1 0 -4.26 0zM856.37 399.5 a2.13 2.13 0 1 0 4.26 0 a2.13 2.13 0 1 0 -4.26 0zM839.37 93.5 a2.13 2.13 0 1 0 4.26 0 a2.13 2.13 0 1 0 -4.26 0zM873.37 586.5 a2.13 2.13 0 1 0 4.26 0 a2.13 2.13 0 1 0 -4.26 0zM839.37 603.5 a2.13 2.13 0 1 0 4.26 0 a2.13 2.13 0 1 0 -4.26 0zM839.37 569.5 a2.13 2.13 0 1 0 4.26 0 a2.13 2.13 0 1 0 -4.26 0zM856.37 297.5 a2.13 2.13 0 1 0 4.26 0 a2.13 2.13 0 1 0 -4.26 0zM822.37 178.5 a2.13 2.13 0 1 0 4.26 0 a2.13 2.13 0 1 0 -4.26 0zM856.37 467.5 a2.13 2.13 0 1 0 4.26 0 a2.13 2.13 0 1 0 -4.26 0zM873.37 263.5 a2.13 2.13 0 1 0 4.26 0 a2.13 2.13 0 1 0 -4.26 0z" fill="black"></path>
            <path d="M567.37 25.5 a2.13 2.13 0 1 0 4.26 0 a2.13 2.13 0 1 0 -4.26 0z" fill="black"></path>
            <path d="M873.37 297.5 a2.13 2.13 0 1 0 4.26 0 a2.13 2.13 0 1 0 -4.26 0zM890.37 161.5 a2.13 2.13 0 1 0 4.26 0 a2.13 2.13 0 1 0 -4.26 0zM890.37 331.5 a2.13 2.13 0 1 0 4.26 0 a2.13 2.13 0 1 0 -4.26 0zM907.37 314.5 a2.13 2.13 0 1 0 4.26 0 a2.13 2.13 0 1 0 -4.26 0zM873.37 212.5 a2.13 2.13 0 1 0 4.26 0 a2.13 2.13 0 1 0 -4.26 0z" fill="black"></path>
            <path d="M533.37 144.5 a2.13 2.13 0 1 0 4.26 0 a2.13 2.13 0 1 0 -4.26 0zM550.37 195.5 a2.13 2.13 0 1 0 4.26 0 a2.13 2.13 0 1 0 -4.26 0zM567.37 161.5 a2.13 2.13 0 1 0 4.26 0 a2.13 2.13 0 1 0 -4.26 0zM533.37 93.5 a2.13 2.13 0 1 0 4.26 0 a2.13 2.13 0 1 0 -4.26 0z" fill="black"></path>
            <path d="M924.37 688.5 a2.13 2.13 0 1 0 4.26 0 a2.13 2.13 0 1 0 -4.26 0zM890.37 586.5 a2.13 2.13 0 1 0 4.26 0 a2.13 2.13 0 1 0 -4.26 0zM941.37 433.5 a2.13 2.13 0 1 0 4.26 0 a2.13 2.13 0 1 0 -4.26 0zM907.37 671.5 a2.13 2.13 0 1 0 4.26 0 a2.13 2.13 0 1 0 -4.26 0zM907.37 654.5 a2.13 2.13 0 1 0 4.26 0 a2.13 2.13 0 1 0 -4.26 0zM907.37 484.5 a2.13 2.13 0 1 0 4.26 0 a2.13 2.13 0 1 0 -4.26 0zM890.37 76.5 a2.13 2.13 0 1 0 4.26 0 a2.13 2.13 0 1 0 -4.26 0zM873.37 25.5 a2.13 2.13 0 1 0 4.26 0 a2.13 2.13 0 1 0 -4.26 0zM941.37 416.5 a2.13 2.13 0 1 0 4.26 0 a2.13 2.13 0 1 0 -4.26 0zM907.37 246.5 a2.13 2.13 0 1 0 4.26 0 a2.13 2.13 0 1 0 -4.26 0zM890.37 416.5 a2.13 2.13 0 1 0 4.26 0 a2.13 2.13 0 1 0 -4.26 0z" fill="black"></path>
            <path d="M516.37 195.5 a2.13 2.13 0 1 0 4.26 0 a2.13 2.13 0 1 0 -4.26 0zM499.37 212.5 a2.13 2.13 0 1 0 4.26 0 a2.13 2.13 0 1 0 -4.26 0zM482.37 144.5 a2.13 2.13 0 1 0 4.26 0 a2.13 2.13 0 1 0 -4.26 0zM499.37 59.5 a2.13 2.13 0 1 0 4.26 0 a2.13 2.13 0 1 0 -4.26 0z" fill="black"></path>
            <path d="M941.37 637.5 a2.13 2.13 0 1 0 4.26 0 a2.13 2.13 0 1 0 -4.26 0zM958.37 382.5 a2.13 2.13 0 1 0 4.26 0 a2.13 2.13 0 1 0 -4.26 0zM941.37 212.5 a2.13 2.13 0 1 0 4.26 0 a2.13 2.13 0 1 0 -4.26 0zM941.37 399.5 a2.13 2.13 0 1 0 4.26 0 a2.13 2.13 0 1 0 -4.26 0zM924.37 722.5 a2.13 2.13 0 1 0 4.26 0 a2.13 2.13 0 1 0 -4.26 0zM958.37 365.5 a2.13 2.13 0 1 0 4.26 0 a2.13 2.13 0 1 0 -4.26 0zM975.37 654.5 a2.13 2.13 0 1 0 4.26 0 a2.13 2.13 0 1 0 -4.26 0zM958.37 348.5 a2.13 2.13 0 1 0 4.26 0 a2.13 2.13 0 1 0 -4.26 0zM958.37 501.5 a2.13 2.13 0 1 0 4.26 0 a2.13 2.13 0 1 0 -4.26 0zM975.37 620.5 a2.13 2.13 0 1 0 4.26 0 a2.13 2.13 0 1 0 -4.26 0z" fill="black"></path>
            <path d="M516.37 25.5 a2.13 2.13 0 1 0 4.26 0 a2.13 2.13 0 1 0 -4.26 0z" fill="black"></path>
            <path d="M958.37 518.5 a2.13 2.13 0 1 0 4.26 0 a2.13 2.13 0 1 0 -4.26 0zM941.37 161.5 a2.13 2.13 0 1 0 4.26 0 a2.13 2.13 0 1 0 -4.26 0zM958.37 331.5 a2.13 2.13 0 1 0 4.26 0 a2.13 2.13 0 1 0 -4.26 0zM958.37 552.5 a2.13 2.13 0 1 0 4.26 0 a2.13 2.13 0 1 0 -4.26 0z" fill="black"></path>
            <path d="M516.37 8.5 a2.13 2.13 0 1 0 4.26 0 a2.13 2.13 0 1 0 -4.26 0z" fill="black"></path>
            <path d="M924.37 8.5 a2.13 2.13 0 1 0 4.26 0 a2.13 2.13 0 1 0 -4.26 0z" fill="black"></path>
            <path d="M499.37 8.5 a2.13 2.13 0 1 0 4.26 0 a2.13 2.13 0 1 0 -4.26 0z" fill="black"></path>
            <path d="M958.37 93.5 a2.13 2.13 0 1 0 4.26 0 a2.13 2.13 0 1 0 -4.26 0zM958.37 76.5 a2.13 2.13 0 1 0 4.26 0 a2.13 2.13 0 1 0 -4.26 0zM958.37 59.5 a2.13 2.13 0 1 0 4.26 0 a2.13 2.13 0 1 0 -4.26 0zM941.37 110.5 a2.13 2.13 0 1 0 4.26 0 a2.13 2.13 0 1 0 -4.26 0z" fill="black"></path>
            <path d="M431.37 722.5 a2.13 2.13 0 1 0 4.26 0 a2.13 2.13 0 1 0 -4.26 0zM414.37 501.5 a2.13 2.13 0 1 0 4.26 0 a2.13 2.13 0 1 0 -4.26 0zM414.37 722.5 a2.13 2.13 0 1 0 4.26 0 a2.13 2.13 0 1 0 -4.26 0zM465.37 722.5 a2.13 2.13 0 1 0 4.26 0 a2.13 2.13 0 1 0 -4.26 0zM465.37 416.5 a2.13 2.13 0 1 0 4.26 0 a2.13 2.13 0 1 0 -4.26 0zM482.37 229.5 a2.13 2.13 0 1 0 4.26 0 a2.13 2.13 0 1 0 -4.26 0zM465.37 586.5 a2.13 2.13 0 1 0 4.26 0 a2.13 2.13 0 1 0 -4.26 0zM482.37 705.5 a2.13 2.13 0 1 0 4.26 0 a2.13 2.13 0 1 0 -4.26 0zM465.37 331.5 a2.13 2.13 0 1 0 4.26 0 a2.13 2.13 0 1 0 -4.26 0zM499.37 42.5 a2.13 2.13 0 1 0 4.26 0 a2.13 2.13 0 1 0 -4.26 0zM482.37 297.5 a2.13 2.13 0 1 0 4.26 0 a2.13 2.13 0 1 0 -4.26 0zM499.37 722.5 a2.13 2.13 0 1 0 4.26 0 a2.13 2.13 0 1 0 -4.26 0z" fill="black"></path>
            <path d="M992.37 722.5 a2.13 2.13 0 1 0 4.26 0 a2.13 2.13 0 1 0 -4.26 0zM1043.37 722.5 a2.13 2.13 0 1 0 4.26 0 a2.13 2.13 0 1 0 -4.26 0zM992.37 263.5 a2.13 2.13 0 1 0 4.26 0 a2.13 2.13 0 1 0 -4.26 0zM1026.37 722.5 a2.13 2.13 0 1 0 4.26 0 a2.13 2.13 0 1 0 -4.26 0zM1060.37 671.5 a2.13 2.13 0 1 0 4.26 0 a2.13 2.13 0 1 0 -4.26 0zM992.37 314.5 a2.13 2.13 0 1 0 4.26 0 a2.13 2.13 0 1 0 -4.26 0zM1009.37 467.5 a2.13 2.13 0 1 0 4.26 0 a2.13 2.13 0 1 0 -4.26 0zM958.37 42.5 a2.13 2.13 0 1 0 4.26 0 a2.13 2.13 0 1 0 -4.26 0zM958.37 127.5 a2.13 2.13 0 1 0 4.26 0 a2.13 2.13 0 1 0 -4.26 0zM1026.37 501.5 a2.13 2.13 0 1 0 4.26 0 a2.13 2.13 0 1 0 -4.26 0zM1009.37 178.5 a2.13 2.13 0 1 0 4.26 0 a2.13 2.13 0 1 0 -4.26 0zM975.37 722.5 a2.13 2.13 0 1 0 4.26 0 a2.13 2.13 0 1 0 -4.26 0z" fill="black"></path>
            <path d="M431.37 314.5 a2.13 2.13 0 1 0 4.26 0 a2.13 2.13 0 1 0 -4.26 0z" fill="black"></path>
            <path d="M1026.37 212.5 a2.13 2.13 0 1 0 4.26 0 a2.13 2.13 0 1 0 -4.26 0zM1043.37 246.5 a2.13 2.13 0 1 0 4.26 0 a2.13 2.13 0 1 0 -4.26 0zM1043.37 195.5 a2.13 2.13 0 1 0 4.26 0 a2.13 2.13 0 1 0 -4.26 0zM1009.37 161.5 a2.13 2.13 0 1 0 4.26 0 a2.13 2.13 0 1 0 -4.26 0z" fill="black"></path>
            <path d="M448.37 93.5 a2.13 2.13 0 1 0 4.26 0 a2.13 2.13 0 1 0 -4.26 0z" fill="black"></path>
            <path d="M1026.37 127.5 a2.13 2.13 0 1 0 4.26 0 a2.13 2.13 0 1 0 -4.26 0zM1026.37 110.5 a2.13 2.13 0 1 0 4.26 0 a2.13 2.13 0 1 0 -4.26 0z" fill="black"></path>
            <path d="M431.37 399.5 a2.13 2.13 0 1 0 4.26 0 a2.13 2.13 0 1 0 -4.26 0zM397.37 314.5 a2.13 2.13 0 1 0 4.26 0 a2.13 2.13 0 1 0 -4.26 0zM397.37 518.5 a2.13 2.13 0 1 0 4.26 0 a2.13 2.13 0 1 0 -4.26 0zM414.37 382.5 a2.13 2.13 0 1 0 4.26 0 a2.13 2.13 0 1 0 -4.26 0zM414.37 246.5 a2.13 2.13 0 1 0 4.26 0 a2.13 2.13 0 1 0 -4.26 0zM414.37 229.5 a2.13 2.13 0 1 0 4.26 0 a2.13 2.13 0 1 0 -4.26 0zM431.37 348.5 a2.13 2.13 0 1 0 4.26 0 a2.13 2.13 0 1 0 -4.26 0z" fill="black"></path>
            <path d="M1077.37 433.5 a2.13 2.13 0 1 0 4.26 0 a2.13 2.13 0 1 0 -4.26 0zM1060.37 263.5 a2.13 2.13 0 1 0 4.26 0 a2.13 2.13 0 1 0 -4.26 0zM1077.37 382.5 a2.13 2.13 0 1 0 4.26 0 a2.13 2.13 0 1 0 -4.26 0zM1094.37 467.5 a2.13 2.13 0 1 0 4.26 0 a2.13 2.13 0 1 0 -4.26 0zM1060.37 297.5 a2.13 2.13 0 1 0 4.26 0 a2.13 2.13 0 1 0 -4.26 0zM1026.37 93.5 a2.13 2.13 0 1 0 4.26 0 a2.13 2.13 0 1 0 -4.26 0zM1077.37 314.5 a2.13 2.13 0 1 0 4.26 0 a2.13 2.13 0 1 0 -4.26 0z" fill="black"></path>
            <path d="M363.37 603.5 a2.13 2.13 0 1 0 4.26 0 a2.13 2.13 0 1 0 -4.26 0zM363.37 314.5 a2.13 2.13 0 1 0 4.26 0 a2.13 2.13 0 1 0 -4.26 0zM346.37 314.5 a2.13 2.13 0 1 0 4.26 0 a2.13 2.13 0 1 0 -4.26 0zM380.37 688.5 a2.13 2.13 0 1 0 4.26 0 a2.13 2.13 0 1 0 -4.26 0zM346.37 297.5 a2.13 2.13 0 1 0 4.26 0 a2.13 2.13 0 1 0 -4.26 0zM397.37 161.5 a2.13 2.13 0 1 0 4.26 0 a2.13 2.13 0 1 0 -4.26 0zM380.37 450.5 a2.13 2.13 0 1 0 4.26 0 a2.13 2.13 0 1 0 -4.26 0zM397.37 76.5 a2.13 2.13 0 1 0 4.26 0 a2.13 2.13 0 1 0 -4.26 0zM397.37 263.5 a2.13 2.13 0 1 0 4.26 0 a2.13 2.13 0 1 0 -4.26 0zM346.37 620.5 a2.13 2.13 0 1 0 4.26 0 a2.13 2.13 0 1 0 -4.26 0z" fill="black"></path>
            <path d="M1094.37 331.5 a2.13 2.13 0 1 0 4.26 0 a2.13 2.13 0 1 0 -4.26 0zM1094.37 178.5 a2.13 2.13 0 1 0 4.26 0 a2.13 2.13 0 1 0 -4.26 0zM1094.37 161.5 a2.13 2.13 0 1 0 4.26 0 a2.13 2.13 0 1 0 -4.26 0zM1094.37 212.5 a2.13 2.13 0 1 0 4.26 0 a2.13 2.13 0 1 0 -4.26 0z" fill="black"></path>
            <path d="M380.37 76.5 a2.13 2.13 0 1 0 4.26 0 a2.13 2.13 0 1 0 -4.26 0zM397.37 42.5 a2.13 2.13 0 1 0 4.26 0 a2.13 2.13 0 1 0 -4.26 0z" fill="black"></path>
            <path d="M1060.37 59.5 a2.13 2.13 0 1 0 4.26 0 a2.13 2.13 0 1 0 -4.26 0z" fill="black"></path>
            <path d="M329.37 263.5 a2.13 2.13 0 1 0 4.26 0 a2.13 2.13 0 1 0 -4.26 0zM380.37 144.5 a2.13 2.13 0 1 0 4.26 0 a2.13 2.13 0 1 0 -4.26 0zM346.37 229.5 a2.13 2.13 0 1 0 4.26 0 a2.13 2.13 0 1 0 -4.26 0zM363.37 195.5 a2.13 2.13 0 1 0 4.26 0 a2.13 2.13 0 1 0 -4.26 0zM312.37 246.5 a2.13 2.13 0 1 0 4.26 0 a2.13 2.13 0 1 0 -4.26 0z" fill="black"></path>
            <path d="M1060.37 76.5 a2.13 2.13 0 1 0 4.26 0 a2.13 2.13 0 1 0 -4.26 0zM1077.37 76.5 a2.13 2.13 0 1 0 4.26 0 a2.13 2.13 0 1 0 -4.26 0z" fill="black"></path>
            <path d="M312.37 178.5 a2.13 2.13 0 1 0 4.26 0 a2.13 2.13 0 1 0 -4.26 0z" fill="black"></path>
            <path d="M1111.37 382.5 a2.13 2.13 0 1 0 4.26 0 a2.13 2.13 0 1 0 -4.26 0zM1145.37 93.5 a2.13 2.13 0 1 0 4.26 0 a2.13 2.13 0 1 0 -4.26 0zM1094.37 416.5 a2.13 2.13 0 1 0 4.26 0 a2.13 2.13 0 1 0 -4.26 0zM1128.37 144.5 a2.13 2.13 0 1 0 4.26 0 a2.13 2.13 0 1 0 -4.26 0zM1128.37 263.5 a2.13 2.13 0 1 0 4.26 0 a2.13 2.13 0 1 0 -4.26 0zM1094.37 144.5 a2.13 2.13 0 1 0 4.26 0 a2.13 2.13 0 1 0 -4.26 0zM1145.37 297.5 a2.13 2.13 0 1 0 4.26 0 a2.13 2.13 0 1 0 -4.26 0z" fill="black"></path>
            <path d="M329.37 518.5 a2.13 2.13 0 1 0 4.26 0 a2.13 2.13 0 1 0 -4.26 0zM312.37 467.5 a2.13 2.13 0 1 0 4.26 0 a2.13 2.13 0 1 0 -4.26 0zM312.37 229.5 a2.13 2.13 0 1 0 4.26 0 a2.13 2.13 0 1 0 -4.26 0zM346.37 433.5 a2.13 2.13 0 1 0 4.26 0 a2.13 2.13 0 1 0 -4.26 0zM261.37 365.5 a2.13 2.13 0 1 0 4.26 0 a2.13 2.13 0 1 0 -4.26 0zM278.37 161.5 a2.13 2.13 0 1 0 4.26 0 a2.13 2.13 0 1 0 -4.26 0zM312.37 331.5 a2.13 2.13 0 1 0 4.26 0 a2.13 2.13 0 1 0 -4.26 0zM261.37 263.5 a2.13 2.13 0 1 0 4.26 0 a2.13 2.13 0 1 0 -4.26 0zM295.37 467.5 a2.13 2.13 0 1 0 4.26 0 a2.13 2.13 0 1 0 -4.26 0z" fill="black"></path>
        </mask>
    </defs>
</svg>