<svg xmlns="http://www.w3.org/2000/svg" xml:space="preserve" id="Layer_1" x="0" y="0" viewBox="0 0 500 500"><style>.st0{fill:#364548}.st5{fill:#23a3c2}.st6{fill:#34bbde}.st7{fill:#d3ecec}</style><g id="XMLID_1_"><path id="XMLID_12_" d="M122.6 345.3v-23.4c0-3.1 1.9-5.5 5.1-5.5h.9c3.2 0 5.1 2.5 5.1 5.5v49.2c0 12-5.9 21.5-16.2 27.6-4.8 2.8-10.1 4.3-15.6 4.3h-2.2c-12 0-21.5-5.9-27.6-16.2-2.8-4.8-4.3-10.1-4.3-15.6V369c0-12 5.9-21.5 16.2-27.6 4.8-2.8 10.1-4.3 15.6-4.3h2.2c8.1-.1 15 3 20.8 8.2M78.8 370c0 8.7 4.2 15.2 11.8 19.3 3.1 1.7 6.4 2.6 9.9 2.6 8.5 0 14.8-4 19.2-11.2 2-3.4 3-7 3-10.9 0-7.5-3.6-13.4-9.6-17.7-3.7-2.6-7.8-4-12.3-4-9.3 0-15.9 4.7-19.9 13-1.5 2.8-2.1 5.8-2.1 8.9m93.3-33h1.5c12.8 0 22.6 6.2 28.7 17.4 2.5 4.5 3.8 9.4 3.8 14.5v2.2c0 12-5.9 21.5-16.3 27.6-4.8 2.8-10.1 4.3-15.6 4.3H172c-12 0-21.5-5.9-27.6-16.2-2.8-4.8-4.3-10.1-4.3-15.6V369c0-12 6-21.5 16.2-27.6 4.9-3 10.2-4.4 15.8-4.4m-20.8 33c0 8.4 4.1 14.6 11.2 18.9 3.3 2 7 3 10.9 3 8.3 0 14.4-4.2 18.7-11.2 2-3.3 3-7 3-10.9 0-7.8-3.8-13.8-10.2-18.1-3.5-2.4-7.5-3.6-11.7-3.6-9.3 0-15.9 4.7-19.9 13-1.4 2.8-2 5.8-2 8.9m100.8-21c-1.7-.8-4.8-1-6.6-1.1-9.2-.3-15.9 4.9-19.9 13-1.4 2.8-2 5.8-2 8.9 0 9.5 5 16.1 13.4 20.2 3.1 1.5 7.1 1.8 10.5 1.8 3 0 7.2-1.8 9.8-3.1l.5-.2h2.2c2.5.5 4.4 2.1 4.4 4.8v1.1c0 6.7-12.3 8.3-17 8.6-16.6 1.1-29-8-33.7-23.8-.8-2.7-1.2-5.5-1.2-8.3v-2.2c0-12 6-21.5 16.2-27.6 4.8-2.8 10.1-4.3 15.6-4.3h2.2c5.9 0 11.3 1.7 16.2 5l.4.3.3.4c.5.9 1 1.9 1 2.9v1.1c0 2.8-2.1 4.3-4.7 4.8h-.7c-1.7.1-5.4-1.7-6.9-2.3m35.9 7.4c4.3-4.3 8.6-8.6 13-12.8 1.2-1.2 5.8-6.2 7.6-6.2h2.2c2.5.5 4.4 2.1 4.4 4.8v1.1c0 1.9-2.2 4-3.4 5.3-2.5 2.7-5.2 5.3-7.8 7.9l-13.4 13.6c5.8 5.8 11.5 11.5 17.2 17.4 1.6 1.6 3.2 3.2 4.7 4.8.5.6 1.4 1.3 1.8 2.1.5.8.8 1.6.8 2.5v1.1l-.1.3c-.6 2.5-2.2 4.6-5 4.6h-.9c-1.8 0-3.9-2.1-5.2-3.3-2.6-2.4-5.1-5-7.6-7.5l-8.5-8.3v13.3c0 3.1-1.9 5.5-5.1 5.5h-.7c-3.2 0-5.1-2.5-5.1-5.5V322c0-3.1 1.9-5.5 5.1-5.5h.9c3.2 0 5.1 2.5 5.1 5.5zm137.9-19h1.1c3.3 0 5.5 2.2 5.5 5.5 0 4.6-4.4 5.8-8.2 5.8-5 0-9.7 3-13.1 6.4-4.3 4.2-6.1 9.6-6.1 15.5v26.8c0 3.1-1.9 5.5-5.1 5.5h-.9c-3.2 0-5.1-2.5-5.1-5.5v-28.3c0-10.9 5.3-19.8 14.1-26 5.3-3.7 11.3-5.7 17.8-5.7m-78.7 53.1c4 1.4 8.6 1.2 12.7.5 2.1-.9 7.5-3.3 9.5-2.9l.3.1.3.1c1.2.6 2.4 1.4 3 2.7 1.4 2.9.8 5.8-2.1 7.4l-.9.5c-10.5 6.1-21.7 5.2-32.1-.4-5-2.7-8.8-6.7-11.6-11.6l-.7-1.1c-6.7-11.7-5.8-23.9 1.8-35 2.6-3.8 6.1-6.8 10.1-9.1l1.5-.9c9.9-5.7 20.5-5.3 30.6-.3 5.5 2.7 9.9 6.7 12.9 12l.5 1c2.2 3.8-.7 7.2-3.6 9.5-3.4 2.6-6.9 5.8-10.2 8.7-7.3 6.1-14.6 12.5-22 18.8m-9.5-6.7c8.2-7 16.4-14.1 24.6-21.2 2.8-2.4 5.9-4.9 8.6-7.5-2.2-2.8-5.9-4.8-9.1-6-6.4-2.4-12.7-1.6-18.5 1.8-7.7 4.4-10.9 11.5-10.6 20.2.1 3.5 1 6.8 2.9 9.7.6 1.1 1.4 2.1 2.1 3" class="st0"/><path id="XMLID_13_" d="M278 162.2h32.6v33.4h16.5c7.6 0 15.5-1.4 22.7-3.8 3.5-1.2 7.5-2.9 11-5-4.6-6-7-13.6-7.7-21.1-.9-10.2 1.1-23.4 8-31.4l3.4-4 4.1 3.3c10.3 8.3 19 19.8 20.5 33 12.4-3.6 26.9-2.8 37.9 3.5l4.5 2.6-2.4 4.6c-9.2 18-28.6 23.6-47.4 22.6-28.3 70.4-89.8 103.7-164.4 103.7-38.5 0-73.9-14.4-94-48.6l-.3-.6-2.9-6c-6.8-15.1-9.1-31.5-7.5-48l.5-4.9H141v-33.4h32.6v-32.6h65.3V96.9H278z" class="st0"/><path id="XMLID_14_" d="M383.8 174.5c2.2-17-10.5-30.4-18.4-36.7-9.1 10.5-10.5 38.1 3.8 49.7-8 7.1-24.8 13.5-41.9 13.5H118c-1.7 17.9 1.5 34.5 8.7 48.6l2.4 4.4c1.5 2.6 3.2 5 4.9 7.4 8.6.6 16.5.7 23.8.6 14.3-.3 25.9-2 34.7-5.1 1.3-.5 2.7.2 3.2 1.6.5 1.3-.2 2.7-1.6 3.2-1.2.4-2.4.8-3.7 1.1-6.9 2-14.4 3.3-24 3.9.6 0-.6.1-.6.1-.3 0-.7.1-1.1.1-3.8.2-7.9.3-12 .3-4.6 0-9.1-.1-14.1-.3l-.1.1c17.4 19.6 44.7 31.3 78.8 31.3 72.3 0 133.6-32.1 160.8-104 19.3 2 37.8-2.9 46.2-19.4-13.3-7.8-30.6-5.4-40.5-.4" style="fill:#22a0c8"/><path id="XMLID_15_" d="M383.8 174.5c2.2-17-10.5-30.4-18.4-36.7-9.1 10.5-10.5 38.1 3.8 49.7-8 7.1-24.8 13.5-41.9 13.5H130.4c-.9 27.5 9.3 48.3 27.4 60.9 14.3-.3 25.9-2 34.7-5.1 1.3-.5 2.7.2 3.2 1.6.5 1.3-.2 2.7-1.6 3.2-1.2.4-2.4.8-3.7 1.1-6.9 2-15 3.5-24.6 4.1l-.2-.2c24.6 12.6 60.3 12.6 101.2-3.1 45.9-17.6 88.5-51.2 118.3-89.6-.4.2-.9.4-1.3.6" style="fill:#37b1d9"/><path id="XMLID_16_" d="M118.4 222.8c1.3 9.6 4.1 18.6 8.3 26.8l2.4 4.4c1.5 2.6 3.2 5 4.9 7.4 8.6.6 16.5.7 23.8.6 14.3-.3 25.9-2 34.7-5.1 1.3-.5 2.7.2 3.2 1.6.5 1.3-.2 2.7-1.6 3.2-1.2.4-2.4.8-3.7 1.1-6.9 2-15 3.4-24.6 4h-1.2q-5.7.3-12 .3c-4.6 0-9.2-.1-14.2-.3 17.4 19.6 44.9 31.4 79 31.4 61.9 0 115.8-23.5 147-75.4z" style="fill:#1b81a5"/><path id="XMLID_17_" d="M132.3 222.8c3.7 16.9 12.6 30.1 25.5 39.1 14.3-.3 25.9-2 34.7-5.1 1.3-.5 2.7.2 3.2 1.6.5 1.3-.2 2.7-1.6 3.2-1.2.4-2.4.8-3.7 1.1-6.9 2-15.2 3.4-24.8 4 24.6 12.6 60.2 12.4 101.1-3.3 24.7-9.5 48.6-23.7 69.9-40.7H132.3" style="fill:#1d91b4"/><path id="XMLID_25_" d="M146.4 167.6h28.3v28.3h-28.3zm2.3 2.4h2.2v23.6h-2.2zm4.2 0h2.3v23.6h-2.3zm4.3 0h2.3v23.6h-2.3zm4.3 0h2.3v23.6h-2.3zm4.3 0h2.3v23.6h-2.3zm4.3 0h2.2v23.6h-2.2z" class="st5"/><path id="XMLID_33_" d="M179 135h28.3v28.3H179zm2.4 2.3h2.2v23.6h-2.2zm4.2 0h2.3v23.6h-2.3zm4.3 0h2.3v23.6h-2.3zm4.3 0h2.3v23.6h-2.3zm4.2 0h2.3v23.6h-2.3zm4.3 0h2.2v23.6h-2.2z" class="st5"/><path id="XMLID_41_" d="M179 167.6h28.3v28.3H179zm2.4 2.4h2.2v23.6h-2.2zm4.2 0h2.3v23.6h-2.3zm4.3 0h2.3v23.6h-2.3zm4.3 0h2.3v23.6h-2.3zm4.2 0h2.3v23.6h-2.3zm4.3 0h2.2v23.6h-2.2z" class="st6"/><path id="XMLID_49_" d="M211.7 167.6H240v28.3h-28.3zm2.3 2.4h2.2v23.6H214zm4.2 0h2.3v23.6h-2.3zm4.3 0h2.3v23.6h-2.3zm4.3 0h2.3v23.6h-2.3zm4.3 0h2.3v23.6h-2.3zm4.3 0h2.2v23.6h-2.2z" class="st5"/><path id="XMLID_57_" d="M211.7 135H240v28.3h-28.3zm2.3 2.3h2.2v23.6H214zm4.2 0h2.3v23.6h-2.3zm4.3 0h2.3v23.6h-2.3zm4.3 0h2.3v23.6h-2.3zm4.3 0h2.3v23.6h-2.3zm4.3 0h2.2v23.6h-2.2z" class="st6"/><path id="XMLID_65_" d="M244.3 167.6h28.3v28.3h-28.3zm2.4 2.4h2.2v23.6h-2.2zm4.2 0h2.3v23.6h-2.3zm4.3 0h2.3v23.6h-2.3zm4.2 0h2.3v23.6h-2.3zm4.3 0h2.3v23.6h-2.3zm4.3 0h2.2v23.6H268z" class="st6"/><path id="XMLID_73_" d="M244.3 135h28.3v28.3h-28.3zm2.4 2.3h2.2v23.6h-2.2zm4.2 0h2.3v23.6h-2.3zm4.3 0h2.3v23.6h-2.3zm4.2 0h2.3v23.6h-2.3zm4.3 0h2.3v23.6h-2.3zm4.3 0h2.2v23.6H268z" class="st5"/><path id="XMLID_81_" d="M244.3 102.3h28.3v28.3h-28.3zm2.4 2.4h2.2v23.6h-2.2zm4.2 0h2.3v23.6h-2.3zm4.3 0h2.3v23.6h-2.3zm4.2 0h2.3v23.6h-2.3zm4.3 0h2.3v23.6h-2.3zm4.3 0h2.2v23.6H268z" class="st6"/><path id="XMLID_89_" d="M277 167.6h28.3v28.3H277zm2.3 2.4h2.2v23.6h-2.2zm4.2 0h2.3v23.6h-2.3zm4.3 0h2.3v23.6h-2.3zm4.3 0h2.3v23.6h-2.3zm4.3 0h2.3v23.6h-2.3zm4.3 0h2.2v23.6h-2.2z" class="st5"/><path id="XMLID_90_" d="M205.6 241.8c4.3 0 7.8 3.5 7.8 7.8s-3.5 7.8-7.8 7.8-7.8-3.5-7.8-7.8 3.4-7.8 7.8-7.8" class="st7"/><path id="XMLID_91_" d="M205.6 244c.7 0 1.4.1 2 .4-.7.4-1.1 1.1-1.1 2 0 1.3 1 2.3 2.3 2.3.9 0 1.6-.5 2-1.2.3.7.4 1.4.4 2.1 0 3.1-2.5 5.6-5.6 5.6s-5.6-2.5-5.6-5.6 2.5-5.6 5.6-5.6" class="st0"/><path id="XMLID_92_" d="M67.5 225.6h363.1c-7.9-2-25-4.7-22.2-15.1-14.4 16.6-49 11.7-57.8 3.5-9.7 14.1-66.5 8.8-70.4-2.2-12.2 14.3-50.1 14.3-62.3 0-4 11-60.7 16.4-70.4 2.2-8.7 8.2-43.4 13.2-57.8-3.5 2.8 10.4-14.3 13.1-22.2 15.1" class="st0"/><path id="XMLID_93_" d="M226.3 298c-19.3-9.2-29.9-21.6-35.8-35.3-7.2 2-15.8 3.4-25.8 3.9-3.8.2-7.8.3-11.9.3-4.8 0-9.9-.1-15.2-.4 17.7 17.7 39.5 31.4 79.9 31.6 2.9.1 5.9 0 8.8-.1" style="fill:#bdd9d7"/><path id="XMLID_94_" d="M197.6 275.3c-2.7-3.6-5.3-8.2-7.2-12.6q-10.8 3.15-25.8 3.9c6.9 3.8 16.8 7.3 33 8.7" class="st7"/></g></svg>